<?xml version="1.0" encoding="UTF-8"?>
<svg width="200px" height="136px" viewBox="0 0 200 136" version="1.1" xmlns="http://www.w3.org/2000/svg" xmlns:xlink="http://www.w3.org/1999/xlink">
    <!-- Generator: Sketch 54.1 (76490) - https://sketchapp.com -->
    <title>Group 38</title>
    <desc>Created with Sketch.</desc>
    <defs>
        <polygon id="path-1" points="0.461938872 0.809153177 48.3072489 0.809153177 48.3072489 27.5633755 0.461938872 27.5633755"></polygon>
    </defs>
    <g id="NEW" stroke="none" stroke-width="1" fill="none" fill-rule="evenodd">
        <g id="YTQP_WEB_ETAPA1_LANDING_1A-Copy-2" transform="translate(-246.000000, -217.000000)">
            <g id="Group-38" transform="translate(246.000000, 217.000000)">
                <path d="M18.6313549,82.2921869 C18.6453643,82.9735508 18.6677793,83.666039 18.6986,84.3696515 C18.6313549,84.3668704 18.5641099,84.3640893 18.4940629,84.3640893 C18.4324216,84.3640893 18.3707803,84.3640893 18.309139,84.3668704 L18.2923278,84.3696515 C18.2222808,84.3696515 18.1746489,84.3474029 18.1382245,84.3251543 C17.6422923,84.0470466 16.7176728,82.4089921 16.7512954,78.217909 C16.7737104,75.3784293 17.6338867,72.6585359 18.7938638,70.2751528 C18.6201474,73.5401373 18.5332892,77.5282019 18.6313549,82.2921869 M77.4679721,47.9125119 C77.1793788,48.2851763 76.5853808,48.5966569 76.0278073,48.5966569 C75.5823088,48.5966569 75.1620273,48.3992004 74.9350752,47.8819201 C73.960022,45.6626206 71.7353316,42.4393522 67.0477912,42.4393522 C66.9973574,42.4393522 66.9441217,42.4393522 66.8936879,42.4421333 C59.6060056,42.5505953 50.9986392,52.4540108 45.2772061,67.936267 C40.0657147,82.0307657 34.4367436,112.238825 39.4184811,116.293635 C39.5361599,116.390973 39.7070744,116.766418 39.5445656,117.116834 C38.9785864,118.329384 37.3871202,121.013123 34.4339417,121.013123 C33.8595569,121.013123 33.2347383,120.913004 32.5566841,120.682175 C27.3564002,118.905067 21.9627868,97.9969292 21.6405709,82.2310032 C21.3155532,66.4622961 23.0583207,59.42339 23.0583207,59.42339 C23.0583207,59.42339 13.8233338,67.8862076 13.7420794,78.1928793 C13.6972493,83.774501 15.1542254,86.0744518 16.644824,86.9226803 C17.216407,87.2452852 17.7935936,87.3565283 18.2923278,87.3565283 C18.3455634,87.3565283 18.3987991,87.3537472 18.4520348,87.3509661 L18.4940629,87.3509661 C19.0096083,87.3509661 19.4831255,87.7875952 19.1412965,88.7720965 C18.6873924,90.0792028 17.8692443,91.8841218 16.5019283,93.3163765 C15.2522911,94.6262638 13.5403442,95.6163272 11.2231919,95.6163272 C4.42303613,95.6163272 1.67159282,85.7880008 3.6188974,78.5711058 C6.51323645,67.8444914 14.9973203,59.0090095 29.9481365,48.8803268 C30.1162491,48.7663026 30.5057101,48.6105623 30.8391334,48.6105623 C31.0604817,48.6105623 31.2538112,48.6773081 31.3434713,48.8747646 C31.5704234,49.3725774 31.6853003,50.3098004 31.2454056,52.061879 C30.3628143,55.5660361 29.5642793,80.9044294 31.0156517,91.6838842 C31.0156517,91.6838842 33.8567551,67.2187491 45.7086952,49.6145311 C55.5965195,34.9332252 64.8259026,30.9868768 70.44927,30.9868768 C71.5700208,30.9868768 72.5450741,31.1426171 73.3520147,31.4012573 C77.8266124,32.8362931 83.2790652,40.4008227 77.4679721,47.9125119 M82.4048796,37.2248327 C81.1384311,33.1922709 77.8742443,29.7103624 74.2766341,28.5589965 C73.116657,28.1863322 71.8277935,28 70.44927,28 C67.7314492,28 63.3689266,28.7453287 58.0061338,32.3106695 C52.8843024,35.7147078 47.9053668,40.9792868 43.2066189,47.9542281 C39.2895948,53.7722414 35.9609648,60.7833367 33.2711627,68.8651467 C33.4224641,59.712622 33.8931795,53.866798 34.1649615,52.7877401 C34.7057238,50.6351864 34.6833088,48.9554159 34.0893109,47.6510907 C33.5205298,46.399606 32.2764964,45.6209044 30.8391334,45.6209044 C29.7912314,45.6209044 28.8161782,46.0297228 28.2530009,46.4135114 C20.1751892,51.881109 14.3809073,56.6784669 10.0211866,61.5036357 C5.30562742,66.7237174 2.25998701,72.0522611 0.710548971,77.7979663 C-0.0263447062,80.5345462 -0.197259209,83.6604768 0.231427987,86.6056375 C0.690935831,89.7538167 1.78086602,92.5154263 3.38914348,94.5901098 C5.4177025,97.2154466 8.12711765,98.603204 11.2231919,98.603204 C14.0839084,98.603204 16.6644372,97.485211 18.6873924,95.3715925 C19.0376271,95.0044903 19.3570411,94.6234827 19.6484363,94.2313509 C20.2984718,98.7672876 21.2258931,103.331035 22.3662571,107.491526 C23.4758004,111.52965 24.7030226,114.891973 26.0143011,117.481155 C27.7094367,120.835134 29.5306568,122.804137 31.5760271,123.504968 C32.5398728,123.835916 33.5009167,124 34.4339417,124 C36.5045289,124 38.4294185,123.185144 40.0012715,121.644428 C41.1388336,120.526435 41.8645198,119.24992 42.2735939,118.376662 C42.9740631,116.874881 42.5958097,115.050494 41.3685876,114.018714 C41.2705219,113.876879 40.5196188,112.669892 40.4972038,108.186796 C40.4775907,104.874533 40.8642497,100.527709 41.609549,95.6052029 C43.0244969,86.263565 45.5742051,75.8067151 48.1043001,68.9624844 C50.7716871,61.7428083 54.1227321,55.6578116 57.795993,51.3554854 C61.0237554,47.5760016 64.271131,45.4679452 66.9357161,45.4290101 C66.9749424,45.426229 67.0113668,45.426229 67.0477912,45.426229 L67.0533949,45.426229 C67.9331844,45.426229 70.5753545,45.4345723 72.1724244,49.0777832 C72.8560824,50.6240621 74.3298698,51.5835337 76.0278073,51.5835337 C77.4819815,51.5835337 78.9837876,50.8576726 79.8579733,49.7313364 C82.8251611,45.89345 83.7301674,41.4520699 82.4048796,37.2248327" id="Fill-1" fill="#841163"></path>
                <path d="M59.1205661,90.0425854 C58.9525076,89.291758 58.8236627,88.3120539 58.7732451,87.1760437 C59.3026295,87.3630528 59.8600237,87.5081941 60.4314227,87.6058854 C59.9692617,88.6246661 59.5155037,89.4396906 59.1205661,90.0425854 M63.1259612,76.0531919 C63.1063544,75.8745564 63.0951505,75.681965 63.0951505,75.4837912 C63.0979515,75.215838 63.1175583,74.9646318 63.153971,74.7273815 C63.1567719,75.1376849 63.145568,75.5814825 63.1259612,76.0531919 M88.5924313,76.767734 C89.7716421,75.9806212 90.7463816,75.2828263 91.3541933,74.7832051 C92.4549767,73.881654 93.5193474,72.9214881 94.5417035,71.9166633 C93.4213133,74.2668368 92.2813162,76.5807249 91.1497221,78.4675625 C90.1021572,80.2120499 89.3374908,81.1219746 88.8501211,81.5908928 C88.6428489,80.7312094 88.4663874,79.1988516 88.5924313,76.767734 M143.267475,65.9379561 C145.625896,65.1731728 147.981517,64.0036684 150.02903,62.616452 C147.524958,66.7641453 145.138527,68.8184537 143.763248,69.0780334 C143.558776,68.6593564 143.284281,67.6740699 143.267475,65.9379561 M120.529155,70.9676622 C120.599179,69.6251047 120.834461,67.7885083 121.355443,65.471829 C121.425467,65.1620081 121.501094,64.8410224 121.573919,64.5116631 C121.758783,63.6966386 121.954852,62.8509111 122.136915,61.9884365 C122.181731,62.0526337 122.226546,62.1140396 122.276964,62.1754456 C122.111706,64.2520834 121.761584,67.1911958 121.013724,69.6223135 C120.848466,70.1470553 120.68601,70.5908529 120.529155,70.9676622 M163.314057,32 L163.314057,32 C159.779226,32 155.387296,34.2301527 154.227692,38.3638901 C154.199683,38.4615814 154.174474,38.5564815 154.152066,38.6485905 C152.92804,37.8865983 151.488338,37.4874596 149.891782,37.4874596 C142.040648,37.4874596 135.337913,45.7186491 132.024359,52.3030424 C131.357727,51.0665497 130.489424,49.8858806 128.92648,49.4392918 C128.593164,49.3443917 128.243042,49.2969417 127.887318,49.2941505 C126.019067,49.2941505 124.13121,50.6785757 122.78394,52.4398102 C122.529052,51.1084174 122.03608,49.891463 121.218195,48.8726823 C120.279868,47.6975956 118.498448,46.2992145 115.352952,46.2992145 C113.025341,46.2992145 110.792964,47.0277124 108.720242,48.4651701 C108.162848,48.8531441 107.616658,49.2857769 107.084472,49.7742334 C108.19646,44.7110331 108.034003,40.3902867 106.56069,37.4986243 C105.616761,35.6480721 104.160254,34.3864588 102.350823,33.8477611 C101.686992,33.6523785 100.995151,33.551896 100.286504,33.551896 C93.3849006,33.551896 85.3236928,43.0223693 78.1728021,59.5349894 C77.1588489,61.871207 76.3241582,64.1571833 75.663128,66.3761713 C75.2401807,65.4076319 74.7808207,64.6261015 74.3746792,64.0315802 C72.7080987,61.5892978 70.4197017,59.9815782 68.0976929,59.6298895 C67.5206919,59.5405718 66.8932734,59.4959129 66.2378451,59.4959129 C64.3107739,59.4959129 59.5463144,59.9285458 55.9694686,63.8250329 C51.9920832,66.1891622 48.804573,70.3536026 46.4937681,76.2150803 C44.7543623,80.6307269 43.9168706,84.7170142 44.0065018,88.3622951 C44.093332,91.7033375 44.9812413,94.7038558 46.5777974,97.0400734 C48.7009369,100.146657 52.020093,102 55.4512881,102 C56.1235222,102 56.7873534,101.927429 57.4287768,101.785079 C60.9832149,100.992384 64.2603563,99.1334583 67.164968,96.2641254 C70.1732158,93.29431 72.6940938,89.2973404 74.6631797,84.3736991 C74.6855875,84.3625344 74.7079953,84.3541609 74.7332041,84.3429961 C75.2877973,86.2102955 76.1000802,87.8347622 77.150446,89.1410343 C79.0747163,91.5498226 81.7860606,92.875633 84.7831045,92.875633 C89.7128216,92.875633 94.2111884,90.517086 98.154962,85.8641892 C100.768272,82.7771442 103.177111,78.7466805 105.84364,72.9605646 C106.193762,76.1843774 107.370172,78.4173213 108.543781,79.8882731 C110.521269,82.3668408 113.409075,83.7903425 116.464939,83.7903425 C119.876528,83.7903425 124.725017,82.3333466 128.453115,75.4056382 C128.923679,74.5292077 129.335422,73.6416125 129.699549,72.7623908 C130.198123,74.2417162 130.93758,75.6289326 131.996349,76.7956458 C133.842192,78.8304159 136.430294,79.9078113 139.480556,79.9078113 C143.698825,79.9078113 148.121566,78.1437856 152.272612,74.8083257 C155.485331,72.2236931 158.417952,68.776586 160.319814,65.3490171 C162.255289,61.8600423 165.414789,55.4821963 166.504369,49.2941505 C166.958127,49.1992504 167.406283,49.0876032 167.840434,48.9675824 C167.677977,49.4699948 167.507118,49.9975278 167.330656,50.5501814 C166.042208,54.5527334 164.44005,59.5349894 162.501774,65.7369911 C161.238534,69.7842019 160.714752,73.8872363 160.980845,77.5995056 C161.249738,81.3201483 162.294502,84.5076757 164.000296,86.8187727 C165.832134,89.2945492 168.383823,90.6622274 171.184799,90.6622274 C175.557122,90.6622274 179.464483,88.7139838 182.486735,85.0324176 C184.836754,82.168667 186.189625,78.7690099 186.671393,76.5444396 C187.444462,72.9828941 186.839451,69.6334782 185.004812,67.3614578 C183.948845,66.0496033 181.988162,64.4865425 178.649399,64.4725866 L178.618588,64.4725866 C178.027582,64.4725866 177.467387,64.5451573 176.935202,64.6791339 C177.971563,61.5334742 178.982715,58.6194824 179.898634,55.9846086 C183.679951,45.1073807 185.57341,39.650624 183.228994,36.3654053 C182.685605,35.6062044 181.413962,34.3334264 178.979914,34.3334264 C177.2181,34.3334264 175.204199,35.2014833 172.65251,36.2956258 C171.075561,36.9738825 169.344558,37.7191276 167.834832,38.1517604 C167.882449,37.9982455 167.94407,37.8279836 168.011293,37.6465569 C168.495862,36.3458671 168.341809,34.9837713 167.596749,33.9175406 C166.734049,32.6810479 165.213119,32 163.314057,32 M58.6640071,94.1037521 C60.7311271,94.1037521 63.2744129,89.6183261 64.7701339,84.465808 C63.9914627,84.6193229 63.2492041,84.7225966 62.5489602,84.7505084 C62.4397222,84.7532996 62.3304841,84.7560908 62.2212461,84.7560908 C59.8544217,84.7560908 57.5744276,83.673113 56.2103525,81.3117748 C56.1655369,81.5490251 56.1263232,81.7862754 56.0843086,82.029108 C55.2076032,87.3909646 56.0422939,94.1037521 58.6640071,94.1037521 M64.0306763,81.1498864 C64.0866958,81.1498864 64.1455163,81.1498864 64.2015358,81.144304 C64.6580949,81.1219746 65.1230568,81.066151 65.5880188,80.9991626 C65.6300334,80.7591212 65.672048,80.5218709 65.7112617,80.2846206 C66.6103749,74.5599107 66.1818256,69.0277922 64.3191768,69.0277922 C62.9663056,69.0277922 60.1037085,71.4979864 60.0869027,75.4726265 C60.0756988,78.3949918 61.6834588,81.1498864 64.0306763,81.1498864 M141.015491,59.4763747 C147.642599,56.5093505 149.989816,45.2888074 147.76024,44.8812951 C147.735031,44.8757127 147.707021,44.8729216 147.676211,44.8729216 C146.191693,44.8729216 143.315092,51.5661709 141.564482,57.3801986 C141.360011,58.0556641 141.177947,58.7590414 141.015491,59.4763747 M86.9706665,67.3475019 C90.0629435,63.9534272 92.7994967,60.210455 94.8834225,56.439571 C98.3986469,50.0728897 100.863505,40.6303282 99.4013962,40.6303282 C97.9392869,40.6303282 92.0908499,50.7399817 88.5532177,61.6255832 C87.942605,63.5068384 87.4104196,65.441126 86.9706665,67.3475019 M163.314057,35.0005184 C164.666929,35.0005184 165.585649,35.5420073 165.18791,36.6026556 C164.21037,39.2403206 164.019903,41.5039675 166.101028,41.5039675 C166.199062,41.5039675 166.305499,41.4983851 166.414737,41.4872204 C170.630206,41.0852905 176.523458,37.3311536 178.979914,37.3311536 C184.455821,37.3311536 179.007924,48.3032816 173.268725,66.2282388 C169.336155,78.506639 173.1987,82.757606 175.125771,82.757606 L175.176189,82.757606 C177.086454,82.6766617 177.781096,80.7926153 177.781096,78.568045 C177.781096,73.1726943 174.31909,74.1468161 173.560026,73.4043622 C172.806564,72.6646995 174.999728,67.4703138 178.618588,67.4703138 L178.635394,67.4703138 C183.301819,67.4898521 184.607074,71.8720045 183.730368,75.9108417 C182.951697,79.5030902 179.159176,87.661709 171.184799,87.661709 C165.137492,87.661709 161.837943,77.9651501 165.378376,66.6245863 C168.607901,56.2748913 171.008337,49.0289884 172.190349,45.2134455 C172.305189,44.8394274 172.156737,44.6914949 171.812217,44.6914949 C170.58539,44.6914949 166.8825,46.5532119 163.821034,46.6285737 C163.400888,51.8397065 160.793179,58.3012879 157.686897,63.8976036 C154.62263,69.4185574 147.340093,76.9100841 139.480556,76.9100841 C132.506127,76.9100841 131.293304,69.8483991 131.937529,63.5263766 C130.985197,63.3756529 130.055273,63.174688 129.175767,62.9123171 C128.517537,68.6119064 125.066736,80.7926153 116.464939,80.7926153 C111.932961,80.7926153 107.000443,76.1815862 109.367267,65.9965708 C110.935814,59.2474979 112.79286,55.3872961 111.32795,55.3872961 C109.672574,55.3872961 106.689535,63.6184856 104.017404,69.6865106 C99.1465074,80.7479565 93.5333523,89.8751146 84.7831045,89.8751146 C80.5368255,89.8751146 77.5481846,86.2075043 76.9683826,80.0473703 C75.6267153,80.7060888 74.279446,81.3089836 72.9965992,81.8058136 C72.7753221,81.889549 72.5512441,81.9760756 72.327166,82.0626022 C68.2685524,93.0626421 62.1596246,97.6569241 56.7677466,98.8599226 C56.3447993,98.9520316 55.9050461,99.0022728 55.4512881,99.0022728 C50.070614,99.0022728 43.4351028,92.161091 49.2947437,77.312014 C51.8212237,70.9146298 55.0675544,67.7382671 57.8993407,66.1779975 C60.3726022,63.2416763 63.8766227,62.4964313 66.2378451,62.4964313 C66.7728314,62.4964313 67.2489973,62.5355078 67.6411339,62.5941226 C71.0023046,63.1076997 75.6827348,68.6956418 73.5091777,78.2024004 C74.6435729,77.5939232 75.780769,76.9017106 76.9151641,76.1425097 C77.1644509,71.7687308 78.416487,66.5380597 80.9345641,60.7240321 C87.7801484,44.9231628 95.2139376,36.5496232 100.286504,36.5524144 C100.706651,36.5524144 101.10719,36.6054468 101.490924,36.7198852 C105.308654,37.8531042 105.978087,44.9231628 102.703746,54.0893975 C100.24449,60.9640735 95.3119718,67.6573229 89.4439279,72.4665258 C88.7856986,73.0052235 87.4384294,73.9570158 85.6990235,75.0790701 C85.1808431,80.7954065 85.9062957,85.0631205 88.3347416,85.0631205 C91.956403,85.0631205 95.6228801,76.6225926 98.9420362,69.6474341 C102.502076,62.1559073 107.02005,49.2969417 115.352952,49.2969417 C122.330182,49.2969417 119.775693,58.7869532 118.42002,64.8159018 C117.252014,70.001914 116.843071,75.821524 119.254711,75.821524 C123.764282,75.821524 125.063935,66.5548068 125.36644,61.064556 C121.377851,57.7458431 126.024669,52.2946688 127.887318,52.29746 C127.960143,52.29746 128.03577,52.3030424 128.100192,52.3225806 C129.598714,52.7496312 130.002055,56.5819211 132.791826,58.736712 C132.929074,58.2008055 133.071924,57.6928107 133.220376,57.2211013 C135.12784,51.2144822 142.289934,40.4851868 149.891782,40.4851868 C156.084739,40.4851868 156.5469,49.3806771 152.880423,55.7138642 C151.135415,58.7255473 145.729533,62.5131784 140.360062,63.6129032 C139.956722,68.1318234 140.724189,72.1036724 143.480349,72.1036724 C150.037433,72.1036724 157.950189,56.5288887 159.132201,45.4562782 C157.213532,44.2030384 156.325623,42.009171 157.123901,39.1705411 C157.913776,36.3709877 161.162908,35.0005184 163.314057,35.0005184" id="Fill-3" fill="#841163"></path>
                <path d="M50,115.172466 C50,115.172466 51.6947042,129.978394 51.6216324,132.735818 C51.5738546,134.574101 52.2596056,136.509281 55.0082303,135.878063 C57.7596654,135.252383 69.6956666,131.188227 84.9198997,124.804071 C100.144133,118.414377 113.797322,112.51194 133.296256,110.72349 C152.795191,108.932272 158.688715,111.933323 158.837669,112.608837 C159.425054,109.657618 158.295251,106.512604 157.412768,101.191551 C156.454403,95.4275381 156.634272,90.9425713 153.823818,90.646342 C151.49114,90.3999457 133.549197,88.7969853 119.59529,91.8063427 C104.123737,95.1451513 88.8995035,100.997756 78.2872266,105.886924 C67.6805705,110.770554 56.8265945,112.996427 50,115.172466" id="Fill-5" fill="#841163"></path>
                <path d="M157,113.637238 C153.404072,112.009264 145.398097,111.965953 144,112.009264 C144,113.660167 145.213985,114.177348 146.007966,118.890575 C146.390573,121.160568 147.892233,122.266265 149.91746,123 C148.749502,118.959363 151.922549,115.522529 157,113.637238" id="Fill-7" fill="#841163"></path>
                <g id="Group-11" transform="translate(151.000000, 95.000000)">
                    <mask id="mask-2" fill="white">
                        <use xlink:href="#path-1"></use>
                    </mask>
                    <g id="Clip-10"></g>
                    <path d="M0.617465333,27.5633755 C4.52722978,24.5579837 11.0161364,19.6847549 18.0939142,17.6062596 C25.1745231,15.5277643 35.6496342,17.2102219 41.7365231,21.6537078 C40.0689987,16.3423097 35.4797676,10.9185605 30.8650564,8.72771411 C37.2916787,5.52570784 44.3156653,5.58188339 48.3103631,6.48069216 C39.5593987,1.50915611 33.7244787,0.189030721 25.2566253,1.05694295 C16.7916031,1.93047273 7.743372,4.91058558 7.743372,4.91058558 C7.743372,4.91058558 10.0507276,13.7835135 9.10796756,17.6231122 C3.21925644,20.7211937 -0.342281333,22.333432 0.617465333,27.5633755" id="Fill-9" fill="#841163" mask="url(#mask-2)"></path>
                </g>
                <polygon id="Fill-12" fill="#FEFEFE" points="65 121.391753 67.8045213 120 68 121.608247 65.1954787 123"></polygon>
                <path d="M75.278975,117.669871 L77.4659289,116.846624 L75.8584741,113.828927 L75.7652883,113.865633 L75.278975,117.669871 Z M72,123 L73.77053,112.169325 L76.8806057,111 L82,119.232467 L79.3296447,120.236618 L78.2842167,118.461656 L75.177053,119.633603 L74.7955737,121.946035 L72,123 Z" id="Fill-14" fill="#FEFEFE"></path>
                <polygon id="Fill-16" fill="#FEFEFE" points="86.7973582 116 82 107.420586 84.7199039 106.494232 87.8120684 112.611358 87.8751126 112.5874 89.1089763 104.99024 92 104 89.8204743 114.964508"></polygon>
                <polygon id="Fill-18" fill="#FEFEFE" points="93.7737342 113 93 102.912568 95.2262658 102 96 112.087432"></polygon>
                <path d="M101.701078,106.764865 L103.887691,106.102703 L102.656835,102.840541 L102.563244,102.87027 L101.701078,106.764865 Z M98,112 L100.819058,100.943243 L103.930233,100 L108,108.967568 L105.325581,109.778378 L104.508792,107.845946 L101.400454,108.789189 L100.79637,111.151351 L98,112 Z" id="Fill-20" fill="#FEFEFE"></path>
                <path d="M108.698192,106.764429 C109.115438,106.912307 109.696801,106.988887 110.242003,106.851571 C110.968011,106.669364 111.326843,106.339279 111.329624,105.420321 L111.335188,98.6707336 L114,98 L113.994437,104.509285 C113.988873,104.897465 113.974965,105.507463 113.888734,105.990708 C113.624478,107.572478 112.659249,108.377886 110.909597,108.81624 C109.763561,109.106715 108.656467,109.016932 108,108.795114 L108.698192,106.764429 Z" id="Fill-22" fill="#FEFEFE"></path>
                <path d="M119.172001,103.313948 L121.356805,102.890071 L120.538547,99.6160757 L120.443919,99.634279 L119.172001,103.313948 Z M115,108 L118.982744,97.6007092 L122.09435,97 L125,106.070449 L122.328138,106.585343 L121.757584,104.640189 L118.651545,105.238298 L117.797105,107.459102 L115,108 Z" id="Fill-24" fill="#FEFEFE"></path>
                <path d="M129.614622,99.2216604 C130.573761,99.1101486 131.176407,98.5095054 131.136796,97.6300827 C131.108503,97.0142334 130.62186,96.9027215 129.74477,97.0040959 L128.929926,97.0978672 L128.57909,99.3407753 L129.614622,99.2216604 Z M127.7501,104.683205 L125,105 L126.468417,95.5012208 L130.268195,95.0627766 C132.523163,94.8042719 133.926506,95.3288843 133.997239,96.9204621 C134.059484,98.3853218 133.060734,99.3838594 131.861102,99.9034031 C132.220426,100.014915 132.376038,100.25061 132.554286,100.706795 L133.756747,103.991325 L130.802936,104.333463 L129.838138,101.411347 C129.710819,101.06414 129.481644,100.934887 129.068563,100.98304 L128.298988,101.069208 L127.7501,104.683205 Z" id="Fill-26" fill="#FEFEFE"></path>
                <polygon id="Fill-28" fill="#FEFEFE" points="137.490854 98.5565 142 98.3825 141.506098 100.4495 137 100.6175"></polygon>
                <path d="M65.8996365,41.5796626 C70.6947585,41.5065741 72.9591996,44.809614 73.9428862,47.07817 C74.4557484,48.25602 75.9550999,47.7921888 76.4763697,47.1090921 C82.2916112,39.5163168 76.835093,31.8701307 72.3622615,30.4196042 C67.4830637,28.8425783 56.5700274,31.0352346 44.7097374,48.8294839 C32.8550523,66.6265444 30.0132909,91.352961 30.0132909,91.352961 C28.564385,80.4571457 29.3631049,54.8452333 30.2430981,51.30325 C30.6858972,49.5322584 30.5709936,48.5849184 30.3411865,48.0817319 C30.1169844,47.5813565 29.2229786,47.8990105 28.9455285,48.0873541 C13.9940523,58.3253724 5.50520098,67.2562303 2.61019161,78.0986346 C0.665238554,85.3934335 3.41451657,95.3278533 10.2190497,95.3278533 C12.5339362,95.3278533 14.2462796,94.3271025 15.4990087,93.0030754 C16.8638389,91.55536 17.6821765,89.7309575 18.1361857,88.4097415 C18.4865015,87.3865019 17.9792443,86.9507817 17.4467643,86.9732705 C16.9142844,87.0013815 16.2725059,86.9029931 15.639135,86.5403615 C14.1481912,85.6829766 12.6936802,83.3581987 12.7357181,77.7163253 C12.8197939,67.2983967 22.0541171,58.744226 22.0541171,58.744226 C22.0541171,58.744226 20.3109459,65.8591146 20.6388414,81.7980394 C20.9611319,97.7369642 26.3559945,118.867987 31.5546803,120.664278 C35.7332465,122.106371 37.8687714,118.525033 38.5441801,117.063262 C38.7095292,116.706252 38.5357725,116.326754 38.4180665,116.228366 C33.4351752,112.129785 39.0682525,81.5956404 44.2781483,67.3461854 C50.0009065,51.6996148 58.6102664,41.6892954 65.8996365,41.5796626" id="Fill-30" fill="#FEFEFE"></path>
                <path d="M148.769415,45.0357874 C150.999388,45.4496496 148.648952,56.8450328 142.023467,59.8582896 C142.183151,59.1297788 142.368049,58.4154414 142.569755,57.7294506 C144.354293,51.7086064 147.309848,44.7636589 148.769415,45.0357874 M59.6545467,95.025236 C57.0351691,95.025236 56.1975286,88.2050141 57.0771912,82.762443 C57.1164118,82.5158265 57.1584339,82.2748793 57.200456,82.0339322 C58.6292075,84.5426173 61.0552834,85.6282968 63.5401903,85.5234139 C64.2405587,85.4950672 64.9857506,85.3901843 65.7617587,85.237112 C64.2685734,90.4670827 61.7248356,95.025236 59.6545467,95.025236 M65.313523,69.5557041 C67.1765028,69.5557041 67.6023267,75.1768595 66.7030538,80.9907727 C66.6638332,81.2317199 66.6246125,81.472667 66.579789,81.7136142 C66.1147444,81.784481 65.6496998,81.8383398 65.1958611,81.8638518 C62.7557778,82.0055854 61.0664893,79.1425663 61.0776952,76.1037974 C61.0945041,72.0672239 63.9604113,69.5557041 65.313523,69.5557041 M100.399176,40.7185813 C101.864346,40.7185813 99.3990497,50.3054435 95.8803992,56.774166 C93.7989044,60.6009738 91.0590635,64.4051042 87.9690383,67.8520659 C88.4060681,65.91315 88.9411496,63.9515567 89.5490693,62.0409874 C93.0901317,50.9857649 98.9396081,40.7185813 100.399176,40.7185813 M179.647255,67.9767915 C176.022148,67.9597835 173.814587,73.2492823 174.573787,74.0033051 C175.330185,74.7544933 178.795607,73.7680273 178.795607,79.2446145 C178.795607,81.5038484 178.100842,83.420087 176.187435,83.4994578 C174.276831,83.5788286 170.309944,79.2956386 174.279632,66.7125276 C180.019851,48.5110959 185.471518,37.3679985 179.994638,37.3679985 C177.537746,37.3679985 171.640644,41.1806329 167.424427,41.5888258 C165.015159,41.8241036 165.172042,39.43164 166.200183,36.628149 C167.225522,33.8274926 159.417816,34.6041929 158.134741,39.2360476 C157.336321,42.1189095 158.224388,44.346962 160.143397,45.61973 C158.961176,56.8648755 151.044212,72.6823478 144.488764,72.6823478 C141.729313,72.6823478 140.96451,68.6486089 141.365121,64.0592742 C146.735546,62.9395786 152.142389,59.0957628 153.887707,56.0371512 C157.557637,49.6024448 157.095394,40.5711784 150.901337,40.5711784 C143.298138,40.5711784 136.131969,51.4676592 134.226967,57.5678743 C134.078489,58.046934 133.932812,58.5600097 133.79554,59.1071015 C131.005273,56.9158997 130.604662,53.0238944 129.103072,52.5930242 C127.422188,52.1054605 122.217051,57.9618938 126.371636,61.4712183 C126.066275,67.047019 124.769193,76.4581315 120.256019,76.4581315 C117.846752,76.4581315 118.252966,70.5506741 119.42118,65.281018 C120.779895,59.1552909 123.334838,49.5202393 116.356368,49.5202393 C108.019183,49.5202393 103.503208,62.5767405 99.9397341,70.187836 C96.6227896,77.2716825 92.9528595,85.8437319 89.3305544,85.8437319 C86.9016769,85.8437319 86.1760953,81.5066831 86.6971694,75.7012739 C88.4368844,74.5645703 89.7815916,73.597947 90.4427393,73.0508552 C96.3090246,68.1667146 101.242419,61.3691701 103.702113,54.3873718 C106.979837,45.0783075 106.310285,37.8952476 102.489075,36.7472052 C97.4380184,35.2278208 89.3417603,43.7573502 81.9318631,61.1253882 C79.4105371,67.0300109 78.16108,72.3421871 77.9089474,76.7812841 C76.7771521,77.5551497 75.6397539,78.2581485 74.5023557,78.8761071 C76.6791005,69.2183781 71.9978385,63.5433638 68.6360704,63.0246188 C66.5125536,62.6929621 61.9265417,63.0076107 58.892546,66.6643382 C56.0574549,68.2460854 52.8105472,71.4747773 50.2864197,77.9718466 C43.9354795,94.3137332 52.2558555,101.102774 57.7607507,99.8555178 C63.1507855,98.6309393 69.260799,93.9679031 73.3201339,82.7936244 C73.5442518,82.7085842 73.7711712,82.6207094 73.9924876,82.5356692 C75.2755624,82.0310975 76.6202696,81.4188082 77.9649768,80.7498255 C78.5448818,87.0059476 81.5312524,90.7307072 85.7810876,90.7307072 C94.5328905,90.7307072 100.147043,81.4613283 105.018805,70.2275214 C107.691411,64.0649436 110.672179,55.7054945 112.327849,55.7054945 C113.795821,55.7054945 111.938445,59.6230118 110.36962,66.4772498 C107.999573,76.8238042 112.935769,81.5038484 117.465752,81.5038484 C126.069076,81.5038484 129.523293,69.1361726 130.176036,63.3477714 C131.061302,63.6142306 131.991391,63.8183271 132.943892,63.9713994 C132.296752,70.3890978 133.512591,77.5636537 140.48826,77.5636537 C148.349194,77.5636537 155.630224,69.9553929 158.697837,64.3455761 C161.80187,58.6648926 164.412843,52.1026258 164.830262,46.8102924 C168.755126,46.7110789 173.733345,43.6382939 173.203866,45.3731135 C172.021644,49.245276 169.61798,56.6069204 166.387881,67.1178858 C162.846819,78.6351599 166.146955,88.482812 172.195336,88.482812 C180.173932,88.482812 183.964326,80.1942297 184.745937,76.5460063 C185.619996,72.44707 184.31451,67.9966342 179.647255,67.9767915" id="Fill-32" fill="#FEFEFE"></path>
                <path d="M158,14.6003706 L157.840871,14 C157.840871,14 128.642099,21.6463867 114.183696,24.503706 C107.843663,25.7572576 106.866555,26.7940086 104.599665,24.0228536 C104.878839,27.5555899 96.0262423,29.4567634 88,32 C96.2160804,30.0376776 105.004467,27.9058061 106.763261,30.7242125 C107.237856,27.3777023 108.287549,27.7501544 114.434953,26.1630636 C129.395868,22.2967881 158,14.6003706 158,14.6003706" id="Fill-34" fill="#841163"></path>
                <path d="M171.283007,12.2740807 L171.263448,12.2623357 C171.221538,12.2740807 171.171245,12.2623357 171.118158,12.2300369 L166.790179,13.2136811 L164.496266,17.0542977 L163.143948,17.4125204 C163.099243,17.4242654 163.043362,17.4037116 162.962335,17.3508591 C162.856161,17.2862616 162.80028,17.2069828 162.794692,17.1071502 C162.789104,17.0102539 162.797486,16.9104214 162.817044,16.8135251 L163.529526,14.3412016 C163.554672,14.264859 163.549084,14.194389 163.515556,14.1327277 C163.476439,14.0710665 163.437323,14.0328952 163.401,14.0064689 C163.26968,13.9242539 163.132771,13.9095726 162.995863,13.9624252 C162.858955,14.0182139 162.736017,14.0534489 162.632637,14.0828115 C162.300145,14.1386002 161.970448,14.0593215 161.64075,13.8537839 C161.338993,13.6658638 161.27473,13.4192187 161.445167,13.1138486 C161.534576,12.9611635 161.643544,12.8231597 161.777659,12.7027734 C161.908979,12.5794508 162.051475,12.4913633 162.205148,12.441447 L162.763957,12.2564632 C162.772339,12.2417819 162.78631,12.2329732 162.808662,12.2271007 C162.831014,12.2212282 162.84219,12.2124194 162.850573,12.1977382 C162.914836,12.1801207 162.95954,12.1507581 162.981893,12.1096506 C163.012627,12.0567981 163.015421,11.9863281 162.990275,11.904113 C162.965129,11.8277705 162.9316,11.763173 162.886895,11.716193 L161.090323,9.85167343 C160.975767,9.70486087 160.970179,9.5404308 161.073559,9.36425573 L161.084735,9.34370197 C161.093117,9.32902071 161.115469,9.2996582 161.162968,9.25267818 L162.451024,8.90913679 C162.487346,8.91207304 162.532051,8.91500929 162.596314,8.91500929 C162.654989,8.91500929 162.694106,8.92088179 162.708076,8.92969055 L166.130784,11.084899 C166.144754,11.0937077 166.181077,11.1025165 166.236958,11.1113252 C166.295633,11.1171977 166.337543,11.1113252 166.368278,11.0937077 L170.531408,9.83699218 C170.573319,9.82524717 170.618024,9.78413966 170.654346,9.71660588 C170.735374,9.57860207 170.735374,9.44940701 170.662728,9.32608446 L163.613347,0.819764641 C163.554672,0.763975868 163.540702,0.705250843 163.568643,0.637717065 C163.599377,0.573119538 163.624524,0.517330764 163.64967,0.473286996 L163.705551,0.373454454 C163.727903,0.335283188 163.761432,0.308856927 163.803343,0.297111922 L164.893021,0.0269768082 C164.923756,0.00642304957 164.965666,-0.00238570413 165.029929,0.000550547106 C165.088604,0.000550547106 165.133309,0.00935930081 165.16125,0.0269768082 L177.399176,7.72582754 L182.285964,6.27825568 C182.632426,6.17842314 182.998446,6.16667814 183.392407,6.24302067 C183.786368,6.32229945 184.130035,6.45443076 184.434586,6.64528709 C184.63017,6.76860964 184.786636,6.93010346 184.898398,7.12095979 C185.01016,7.31475237 185.029719,7.55552497 184.957073,7.84327759 L184.859282,8.01064391 L184.767078,8.17507398 C184.6162,8.43640034 184.412234,8.70066295 184.152388,8.97079806 C183.895335,9.23799693 183.615931,9.39949074 183.316968,9.45234327 L178.240184,10.6708875 C178.184303,10.6738238 178.13401,10.7061225 178.094894,10.7619113 C178.052983,10.8206363 178.022248,10.8646801 178.005484,10.8881701 L171.00919,23.1763815 C170.992426,23.2028078 170.942133,23.2732778 170.861106,23.3877916 C170.77449,23.5052417 170.726991,23.5786479 170.713021,23.6050742 C170.696257,23.6315005 170.665522,23.6579267 170.6292,23.6814167 C170.590083,23.7049068 170.55376,23.7137155 170.520232,23.7107793 L169.497611,23.9955956 C169.36629,24.0073406 169.276881,23.9955956 169.223794,23.9603606 C169.092474,23.8810818 169.042181,23.7489505 169.078504,23.5639667 L171.405945,12.7203909 C171.431091,12.6440484 171.433885,12.5618333 171.414327,12.4737458 C171.389181,12.382722 171.344476,12.3181245 171.283007,12.2740807" id="Fill-36" fill="#FEFEFE"></path>
            </g>
        </g>
    </g>
</svg>