<?xml version="1.0" encoding="UTF-8"?>
<svg width="60px" height="63px" viewBox="0 0 60 63" version="1.1" xmlns="http://www.w3.org/2000/svg" xmlns:xlink="http://www.w3.org/1999/xlink">
    <!-- Generator: Sketch 54.1 (76490) - https://sketchapp.com -->
    <title>Group 34</title>
    <desc>Created with Sketch.</desc>
    <g id="-" stroke="none" stroke-width="1" fill="none" fill-rule="evenodd">
        <g id="YTQP_WEB_ETAPA0_LANDING_1A-Copy-4" transform="translate(-572.000000, -2769.000000)" fill="#E87A14">
            <g id="seccion" transform="translate(-4.000000, 2152.000000)">
                <g id="Group-32-Copy" transform="translate(562.000000, 606.000000)">
                    <g id="Group-34" transform="translate(14.000000, 11.000000)">
                        <path d="M16.0162945,48.8233848 C12.224038,47.7735555 8.75429929,46.2992262 6.19781473,44.6437482 C5.07662708,43.9180041 4.312019,43.2784529 3.79995249,42.7562677 L9.75377672,42.7562677 C9.75605701,42.7562677 9.75833729,42.7566986 9.76061758,42.7566986 C9.76261283,42.7566986 9.76460808,42.7562677 9.76660333,42.7562677 L27.9394774,42.7562677 L25.9111639,47.1406124 C25.3859857,47.3660068 24.5580998,47.7560296 23.6573872,48.3105371 C22.6755819,47.9649037 21.6304988,47.7985514 20.4269359,47.7985514 C18.3930641,47.7985514 17.0764846,48.2690209 16.0162945,48.8233848 L16.0162945,48.8233848 Z M11.5904038,31.9659241 C12.6820903,28.4323032 13.5488836,25.8304273 14.7664133,24.5312132 C15.5415677,23.7040488 16.6972447,23.0762773 19.8736817,24.0766894 C23.0504038,25.0758086 23.6466983,26.2536343 23.8177197,27.3777332 C24.0048456,28.6069874 23.6950119,30.2604542 23.1202375,32.3443109 C22.3513539,30.9313222 22.0566271,29.112796 22.3338242,27.1549246 C22.4449881,26.3694201 21.9035629,25.6420958 21.1244181,25.5299014 C20.3451306,25.4172761 19.6234204,25.9634516 19.512114,26.7489561 C19.0063183,30.3202146 19.9881235,33.6097661 22.108076,35.7252268 C21.5585273,37.4538251 21.01981,38.8250102 20.4742518,39.8833152 L10.6410926,39.8833152 C10.0896912,38.3207818 10.3953919,35.8211882 11.5904038,31.9659241 L11.5904038,31.9659241 Z M33.0347743,30.3552664 C33.2974347,30.2710847 33.5543943,30.174836 33.8075059,30.0711172 L32.0251781,33.9237955 C29.6665083,35.3462654 27.3072684,35.5982359 25.4256057,34.6370416 C25.8974822,33.0587062 26.2777197,31.6481597 26.5010451,30.3768146 C27.6094062,30.6948664 28.7152019,30.8556161 29.80019,30.8556161 C30.9066983,30.8556161 31.991829,30.6894075 33.0347743,30.3552664 L33.0347743,30.3552664 Z M42.6485986,10.1858441 C42.7248456,9.44674014 43.784323,6.52954197 45.239715,3.36554483 C45.4663183,2.87309615 45.5904513,2.87309615 45.7476485,2.87309615 C46.1390024,2.87309615 46.7864608,3.08426872 47.6720665,3.50029304 C49.1533967,4.19673155 49.4273159,4.58876552 49.4764846,4.72509393 C49.5105463,4.82019341 49.4589549,5.0319406 49.3380998,5.29181214 C47.8693112,8.44891385 46.3333967,11.1421542 45.8200475,11.6766937 C44.9449881,12.5881835 43.8138242,13.2847656 42.9329216,13.7425935 C42.7083135,12.7247992 42.5233254,11.3998709 42.6485986,10.1858441 L42.6485986,10.1858441 Z M24.5615202,37.3998109 C25.5924941,37.8497377 26.7058432,38.0745575 27.8595249,38.0745575 C28.6419477,38.0744138 29.4428979,37.9696895 30.2484086,37.7649814 L29.2684561,39.8833152 L23.6257482,39.8833152 C23.940285,39.1490954 24.2499762,38.3260971 24.5615202,37.3998109 L24.5615202,37.3998109 Z M56.0576722,42.7562677 C55.5456057,43.2785965 54.7808551,43.9181477 53.6596675,44.6438918 C51.1028979,46.2993698 47.6328741,47.7738428 43.8404751,48.8236721 C42.78,48.2693082 41.4631354,47.7985514 39.4289786,47.7985514 C36.6590024,47.7985514 35.2171496,48.6705361 33.9451781,49.4398076 C32.8071734,50.1280578 31.9083135,50.6716476 29.9277435,50.6716476 C29.6062233,50.6716476 29.3050831,50.6564201 29.0193349,50.6263963 C28.8632779,49.6709482 28.6487886,48.8663376 28.4944418,48.3547828 L31.0844181,42.7562677 L56.0576722,42.7562677 Z M20.7493112,56.4241607 C21.8204751,54.3211979 22.7752019,52.7159991 23.1581473,52.3170697 C24.0329216,51.4058673 25.163658,50.7092851 26.044133,50.2516009 C26.2624703,51.2258678 26.4598575,52.5467738 26.3297387,53.8077757 C26.2831354,54.2594264 25.8404751,55.6331973 25.0616152,57.5631996 C24.0182423,56.9888677 22.740285,56.4751581 20.7493112,56.4241607 L20.7493112,56.4241607 Z M29.208171,53.5237701 C29.4416152,53.5374173 29.6809026,53.5447437 29.927601,53.5447437 C32.6977197,53.5447437 34.1395724,52.6729027 35.4115439,51.9034875 C36.5495487,51.2152373 37.4484086,50.6716476 39.4289786,50.6716476 C41.4096912,50.6716476 42.3086936,51.2152373 43.4466983,51.9034875 C44.7186698,52.6729027 46.1605226,53.5447437 48.9306413,53.5447437 C51.7007601,53.5447437 53.1426128,52.6730463 54.4145843,51.9034875 C55.5525891,51.2152373 56.4515914,50.6716476 58.4321615,50.6716476 C59.2192874,50.6716476 59.8573397,50.028505 59.8573397,49.2350995 C59.8573397,48.4418376 59.2192874,47.7985514 58.4321615,47.7985514 C55.6619002,47.7985514 54.2200475,48.6705361 52.9482185,49.4399512 C51.8102138,50.1280578 50.9112114,50.6716476 48.9306413,50.6716476 C48.495962,50.6716476 48.1157245,50.6443531 47.7714014,50.5960851 C50.5929691,49.5991208 53.1534442,48.3865305 55.2001425,47.0613149 C57.3247981,45.6856765 59.8576247,43.5729452 59.8576247,41.3197196 C59.8576247,40.5263141 59.2195724,39.8831715 58.4324466,39.8831715 L32.4135392,39.8831715 L34.4340143,35.5150598 C34.4398575,35.5021309 34.4466983,35.4894892 34.452114,35.476273 L43.0673159,16.8531511 C44.0880285,16.4150039 46.2538717,15.356268 47.8684561,13.6746448 C48.968266,12.5291413 50.9318765,8.63293566 51.9186698,6.51158511 C52.3798575,5.52036694 52.4596675,4.5897711 52.1558195,3.74536814 C51.6567221,2.35866828 50.2178622,1.5270506 48.8766271,0.896262344 C47.5576247,0.276535504 46.5926366,9.23705556e-14 45.7476485,9.23705556e-14 C44.7889311,9.23705556e-14 43.4740618,0.374077119 42.6537292,2.15697693 C41.675772,4.28292443 39.9771021,8.30396615 39.8134917,9.88876598 C39.5732067,12.2166921 40.1609501,14.5697579 40.4838955,15.6392679 L36.6674109,23.8890762 C34.5461758,27.4869109 30.7020428,28.821895 26.6908789,27.4242774 C26.6771971,27.2609419 26.6590974,27.0999048 26.6350119,26.9420282 C26.0981473,23.4131478 23.0035154,22.0514439 20.7232304,21.3343191 C18.4418052,20.6156141 15.1278385,19.9612665 12.6942043,22.5582581 C11.0561045,24.3065371 10.0754394,27.2062094 8.86931116,31.1103161 C7.65149644,35.0389878 7.26085511,37.7866733 7.68171021,39.8830279 L1.42517815,39.8830279 C1.0472209,39.8830279 0.6847981,40.0342964 0.417434679,40.3036491 C0.150213777,40.5731456 3.19744231e-14,40.9384597 3.19744231e-14,41.3195759 C3.19744231e-14,43.5726579 2.53268409,45.6853892 4.65719715,47.0610276 C6.70375297,48.3860996 9.26437055,49.5988335 12.0859382,50.5957978 C11.7414727,50.6439222 11.3610926,50.6713602 10.9262708,50.6713602 C8.94584323,50.6713602 8.04698337,50.1277705 6.90897862,49.4395203 C5.63700713,48.6703924 4.19529691,47.7982641 1.42532067,47.7982641 C0.638337292,47.7982641 0.000142517815,48.4415503 0.000142517815,49.2348122 C0.000142517815,50.0282177 0.638194774,50.6713602 1.42532067,50.6713602 C3.40589074,50.6713602 4.30446556,51.21495 5.44247031,51.9032002 C6.71458432,52.6724717 8.15629454,53.5444564 10.9264133,53.5444564 C13.6963895,53.5444564 15.1380998,52.6726154 16.4100713,51.9032002 C16.5819477,51.7993378 16.7484086,51.6992104 16.9140143,51.6031053 C16.9162945,51.6018124 16.9185748,51.6003759 16.9208551,51.599083 C17.8486461,51.0616704 18.7500713,50.6713602 20.4270784,50.6713602 C20.5581948,50.6713602 20.6826128,50.674808 20.803753,50.6795486 C19.7854632,51.9898241 18.2893112,54.8991212 17.3465558,56.8742312 C16.3735867,57.1961616 15.6326366,57.6420661 14.9435629,58.0586651 C13.8058432,58.7469153 12.9069834,59.290505 10.9265558,59.290505 C8.94612827,59.290505 8.04726841,58.7469153 6.90926366,58.0586651 C5.63729216,57.2895372 4.19558195,56.4174089 1.4256057,56.4174089 C0.638622328,56.4174089 0.000427553444,57.0606951 0.000427553444,57.853957 C0.000427553444,58.6473625 0.63847981,59.290505 1.4256057,59.290505 C3.40617577,59.290505 4.30475059,59.8340948 5.44275534,60.522345 C6.71486936,61.2916165 8.15657957,62.1636012 10.9266983,62.1636012 C13.6966746,62.1636012 15.1382423,61.2917602 16.4103563,60.522345 C17.135772,60.0836232 17.7652732,59.7042309 18.6387648,59.4865939 C18.6706888,59.4799857 18.7026128,59.4730903 18.7339667,59.4641837 C19.2088361,59.3545751 19.7548219,59.290505 20.4273634,59.290505 C22.407791,59.290505 23.3065083,59.8340948 24.4445131,60.522345 C25.7166271,61.2916165 27.1583373,62.1636012 29.9284561,62.1636012 C32.6985748,62.1636012 34.1404276,61.2917602 35.412399,60.522345 C36.5504038,59.8340948 37.4492637,59.290505 39.4298337,59.290505 C41.4105463,59.290505 42.3095487,59.8340948 43.4475534,60.522345 C44.7196675,61.2917602 46.1613777,62.1636012 48.9314964,62.1636012 C51.7016152,62.1636012 53.1434679,61.2919038 54.4154394,60.522345 C55.5534442,59.8340948 56.4524466,59.290505 58.4330166,59.290505 C59.2201425,59.290505 59.8581948,58.6473625 59.8581948,57.853957 C59.8581948,57.0606951 59.2201425,56.4174089 58.4330166,56.4174089 C55.6627553,56.4174089 54.2210451,57.2893936 52.9490736,58.0586651 C51.8110689,58.7469153 50.9120665,59.290505 48.9314964,59.290505 C46.9509264,59.290505 46.051924,58.7469153 44.9139192,58.0586651 C43.6418052,57.2895372 42.1999525,56.4174089 39.4298337,56.4174089 C36.6598575,56.4174089 35.2180048,57.2893936 33.9460333,58.0586651 C32.8080285,58.7469153 31.9091686,59.290505 29.9285986,59.290505 C28.9296912,59.290505 28.2064133,59.1520218 27.5883135,58.9266274 C28.2342043,57.3480047 29.0548219,55.1791045 29.1657007,54.1048538 C29.1847981,53.9112071 29.1990499,53.7169858 29.208171,53.5237701 L29.208171,53.5237701 Z" id="Fill-3"></path>
                        <path d="M17.0017154,12.5642822 C17.4355096,9.89866021 19.7978147,7.8886126 22.4965885,7.8886126 C22.795444,7.8886126 23.0979584,7.91320213 23.3959358,7.96164935 C26.4279584,8.45519632 28.4933106,11.3232428 27.9999502,14.3546341 C27.5586919,17.0659224 25.2511232,19.0339629 22.5129802,19.0339629 C22.2116366,19.0339629 21.9064879,19.0090806 21.6060224,18.9601943 C20.1373568,18.7210319 18.8495851,17.9247995 17.980094,16.7180098 C17.1097249,15.5101956 16.7622797,14.0349702 17.0017154,12.5642822 M21.1356396,21.8494639 C21.5910943,21.9235253 22.0544521,21.9611414 22.5128338,21.9611414 C26.6931524,21.9611414 30.215901,18.9599016 30.8888382,14.8247625 C31.6415385,10.2000283 28.4911153,5.82514131 23.8660259,5.07223335 C23.4132056,4.99861113 22.9524822,4.96114137 22.4965885,4.96114137 C20.5022181,4.96114137 18.5586327,5.67321315 17.0235222,6.9663589 C15.4715809,8.27384855 14.4378803,10.0946446 14.1125346,12.0938611 C13.7473806,14.3367774 14.277476,16.5867193 15.6049097,18.4290312 C16.9316116,20.2700258 18.8956867,21.4847193 21.1356396,21.8494639" id="Fill-1"></path>
                    </g>
                </g>
            </g>
        </g>
    </g>
</svg>