<svg xmlns="http://www.w3.org/2000/svg" width="56" height="56" viewBox="0 0 56 56">
    <g fill="none" fill-rule="evenodd">
        <g fill="#0071BC">
            <g>
                <g>
                    <g>
                        <path d="M4.739 7.173L6.153 5.76l20.302 12.187c-1.86 1.87-3.639 3.72-5.364 5.58L4.74 7.173zm18.563 0l2.32 2.32-2.577 2.579-2.9-1.741 3.157-3.158zm15.083 3.48c2.955-2.954 6.169-5.261 9.05-6.496 2.27-.973 4.182-1.155 4.873-.465.69.691.508 2.604-.465 4.874-1.234 2.88-3.542 6.094-6.497 9.049l-9.09 9.09c-8.87 8.87-17.004 15.643-27.479 23.189l-2.67-2.671c7.947-11.033 14.756-19.047 23.188-27.48 1.272-1.27 7.774-7.773 9.09-9.09zm8.122 19.725l2.32 2.32-3.158 3.158-1.74-2.9 2.578-2.578zm2.32 20.883L32.475 34.91c1.86-1.725 3.709-3.504 5.58-5.363L50.24 49.847l-1.414 1.414zm-28.12.276l-.503.502-3.741-3.741c.978-.742 1.935-1.48 2.874-2.213l1.37 5.452zM3.96 35.796l.503-.502 5.452 1.37c-.735.938-1.472 1.895-2.213 2.874L3.96 35.796zm.4-3.912c-.56-.14-1.152.023-1.56.431l-2.32 2.32c-.641.642-.641 1.68 0 2.321l5.234 5.235c-1.014 1.372-2.041 2.787-3.089 4.253-.466.653-.392 1.547.175 2.114l4.64 4.641c.568.568 1.462.641 2.115.175 1.466-1.047 2.881-2.075 4.253-3.09l5.235 5.236c.64.64 1.68.64 2.32 0l2.32-2.32c.409-.409.572-1.001.432-1.56l-1.959-7.798c2.737-2.213 5.34-4.429 7.89-6.719l17.62 17.62c.64.64 1.68.64 2.32 0l3.48-3.482c.533-.532.635-1.359.247-2.004L47.41 38.755l4.898-4.897c.64-.64.64-1.68 0-2.32l-4.641-4.641c-.641-.641-1.68-.641-2.32 0l-3.16 3.158-1.74-2.9 7.22-7.22c3.243-3.243 5.797-6.821 7.192-10.077 1.597-3.726 1.515-6.74-.231-8.486-1.746-1.746-4.76-1.828-8.486-.231-3.255 1.395-6.834 3.95-10.077 7.192l-7.22 7.22-2.9-1.74 3.158-3.16c.641-.64.641-1.679 0-2.32l-4.64-4.64c-.641-.641-1.68-.641-2.32 0L17.244 8.59 6.744 2.286C6.098 1.898 5.27 2 4.739 2.532l-3.48 3.481c-.642.64-.642 1.68 0 2.32l17.618 17.62c-2.29 2.55-4.506 5.153-6.72 7.89l-7.796-1.959z" transform="translate(-199 -2517) translate(-4 2152) translate(183 350) translate(20 15)"/>
                    </g>
                </g>
            </g>
        </g>
    </g>
</svg>
