<?xml version="1.0" encoding="UTF-8"?>
<svg width="56px" height="50px" viewBox="0 0 56 50" version="1.1" xmlns="http://www.w3.org/2000/svg" xmlns:xlink="http://www.w3.org/1999/xlink">
    <!-- Generator: Sketch 54.1 (76490) - https://sketchapp.com -->
    <title>Group 6</title>
    <desc>Created with Sketch.</desc>
    <g id="-" stroke="none" stroke-width="1" fill="none" fill-rule="evenodd">
        <g id="YTQP_WEB_ETAPA0_LANDING_1A-Copy-4" transform="translate(-577.000000, -2649.000000)" fill="#4EB700">
            <g id="seccion" transform="translate(-4.000000, 2152.000000)">
                <g id="Group-32" transform="translate(562.000000, 478.000000)">
                    <g id="Group-6" transform="translate(19.000000, 19.000000)">
                        <path d="M8.90812403,47.3670699 L14.5232093,47.3670699 L14.5232093,11.297464 L8.90812403,11.297464 L8.90812403,47.3670699 Z M17.1278605,47.3670699 L38.8721395,47.3670699 L38.8721395,11.297464 L17.1278605,11.297464 L17.1278605,47.3670699 Z M12.4990698,8.66453399 L17.6064651,8.66453399 L17.6064651,7.10518117 L12.4990698,7.10518117 L12.4990698,8.66453399 Z M41.4767907,47.3670699 L47.091876,47.3670699 L47.091876,11.297464 L41.4767907,11.297464 L41.4767907,47.3670699 Z M38.3935349,8.66453399 L43.5010388,8.66453399 L43.5010388,7.10518117 L38.3935349,7.10518117 L38.3935349,8.66453399 Z M53.3953488,14.2134341 L53.3953488,44.4512096 C53.3953488,46.0589425 52.1012713,47.3670699 50.5106977,47.3670699 L49.6964186,47.3670699 L49.6964186,11.297464 L50.5106977,11.297464 C52.1012713,11.297464 53.3953488,12.6055915 53.3953488,14.2134341 L53.3953488,14.2134341 Z M20.2111163,8.66453399 L20.2111163,3.32681683 C20.2111163,2.94416433 20.5190078,2.63293006 20.8975504,2.63293006 L35.1024496,2.63293006 C35.4809922,2.63293006 35.7889922,2.94416433 35.7889922,3.32681683 L35.7889922,8.66453399 L20.2111163,8.66453399 Z M6.3035814,11.297464 L6.3035814,47.3670699 L5.48930233,47.3670699 C3.89872868,47.3670699 2.60465116,46.0589425 2.60465116,44.4512096 L2.60465116,14.2134341 C2.60465116,12.6055915 3.89872868,11.297464 5.48930233,11.297464 L6.3035814,11.297464 Z M50.5106977,8.66453399 L46.1055814,8.66453399 L46.1055814,5.78871614 C46.1055814,5.06279538 45.5213798,4.47225111 44.8032558,4.47225111 L38.3935349,4.47225111 L38.3935349,3.32681683 C38.3935349,1.49243252 36.9171318,0 35.1024496,0 L20.8975504,0 C19.0828682,0 17.6064651,1.49243252 17.6064651,3.32681683 L17.6064651,4.47225111 L11.1967442,4.47225111 C10.4786202,4.47225111 9.8944186,5.06279538 9.8944186,5.78871614 L9.8944186,8.66453399 L5.48930233,8.66453399 C2.46248062,8.66453399 0,11.15375 0,14.2134341 L0,44.4512096 C0,47.5108937 2.46248062,50 5.48930233,50 L50.5106977,50 C53.5375194,50 56,47.5108937 56,44.4512096 L56,14.2134341 C56,11.15375 53.5375194,8.66453399 50.5106977,8.66453399 L50.5106977,8.66453399 Z" id="Fill-1"></path>
                        <path d="M34.1642379,32.5 C34.1642379,33.4177235 33.4177235,34.1642379 32.5,34.1642379 C31.5822765,34.1642379 30.8357621,33.4177235 30.8357621,32.5 C30.8357621,31.5822765 31.5822765,30.8357621 32.5,30.8357621 C33.4177235,30.8357621 34.1642379,31.5822765 34.1642379,32.5 M32.5,28 C30.0187082,28 28,30.0187082 28,32.5 C28,34.9812918 30.0187082,37 32.5,37 C34.9812918,37 37,34.9812918 37,32.5 C37,30.0187082 34.9812918,28 32.5,28" id="Fill-3"></path>
                        <path d="M25.2822351,19.3096442 C25.5686169,19.3096442 25.770189,19.3436546 25.8226129,19.3536194 C26.2396211,19.4381039 26.6730931,19.310619 26.9820042,19.012757 C27.2896155,18.7161947 27.4315066,18.2866235 27.3618608,17.8634429 C27.2915651,17.4366878 27.2790007,16.4227656 27.6886436,16.0131241 C28.231296,15.4705819 29.1634448,15.470257 29.7665363,16.0121492 C30.0967852,16.3087115 30.2692208,16.6365763 30.3819755,17.181718 C30.5092442,17.7978049 30.2086733,20.007941 29.8668349,21.8599928 C27.6905933,22.2632438 25.6919864,22.4864779 25.1807451,22.3815221 C24.6373346,22.2697427 24.3096852,22.0971993 24.0122554,21.7663017 C23.4703613,21.1631041 23.4707946,20.2310667 24.0132302,19.6886329 L24.0132302,19.6887413 C24.3430459,19.3589268 24.9499283,19.3096442 25.2822351,19.3096442 M24.6572643,24.9278632 C24.8897058,24.9757378 25.1938511,25 25.561035,25 C27.3875312,25 30.3667032,24.4197648 31.236355,24.2420224 C31.7470548,24.1373916 32.1446748,23.7398812 32.2490894,23.2291833 C32.4182756,22.4023183 33.2464432,18.1994312 32.9276756,16.6557478 C32.7861094,15.9712067 32.484347,14.9592341 31.5037819,14.0785374 C29.8626106,12.6040663 27.3792993,12.6463085 25.8504495,14.175153 C25.0874869,14.9383296 24.8285085,15.9544182 24.7525805,16.732867 C23.979328,16.8032707 22.9634525,17.0621399 22.1751445,17.8506619 C20.646403,19.3792897 20.6039439,21.8623757 22.0786368,23.5038662 C22.9613946,24.486161 23.9731541,24.7869474 24.6572643,24.9278632" id="Fill-4"></path>
                        <path d="M23.3333333,41.6666667 L25.6666667,41.6666667 L25.6666667,39.3333333 L23.3333333,39.3333333 L23.3333333,41.6666667 Z M26.8333333,37 L22.1666667,37 C21.5233472,37 21,37.5233472 21,38.1666667 L21,42.8333333 C21,43.4766528 21.5233472,44 22.1666667,44 L26.8333333,44 C27.4766528,44 28,43.4766528 28,42.8333333 L28,38.1666667 C28,37.5233472 27.4766528,37 26.8333333,37 L26.8333333,37 Z" id="Fill-5"></path>
                    </g>
                </g>
            </g>
        </g>
    </g>
</svg>