<?xml version="1.0" encoding="UTF-8"?>
<svg width="68px" height="55px" viewBox="0 0 68 55" version="1.1" xmlns="http://www.w3.org/2000/svg" xmlns:xlink="http://www.w3.org/1999/xlink">
    <!-- Generator: Sketch 54.1 (76490) - https://sketchapp.com -->
    <title>Group 7</title>
    <desc>Created with Sketch.</desc>
    <g id="-" stroke="none" stroke-width="1" fill="none" fill-rule="evenodd">
        <g id="YTQP_WEB_ETAPA0_LANDING_1A-Copy-4" transform="translate(-193.000000, -2391.000000)" fill="#990664">
            <g id="seccion" transform="translate(-4.000000, 2152.000000)">
                <g id="Group-25" transform="translate(183.000000, 222.000000)">
                    <g id="Group-7" transform="translate(14.000000, 17.000000)">
                        <g id="Group-3">
                            <path d="M63.8769333,27.1184177 L63.8769333,34.5518529 L3.95772734,34.5518529 L3.95772734,27.1184177 C3.95772734,24.7416208 5.93558502,22.8078121 8.36652135,22.8078121 L59.4678846,22.8078121 C61.8990757,22.8078121 63.8769333,24.7416208 63.8769333,27.1184177 L63.8769333,27.1184177 Z M49.8865064,8.00867233 L40.3048734,8.00867233 C37.4526936,8.00867233 35.1322891,10.277399 35.1322891,13.0660577 L35.1322891,18.9379536 L32.7023715,18.9379536 L32.7023715,13.0660577 C32.7023715,10.277399 30.381967,8.00867233 27.5295326,8.00867233 L17.9481543,8.00867233 C15.0957199,8.00867233 12.7753154,10.277399 12.7753154,13.0660577 L12.7753154,18.9379536 L10.3456524,18.9379536 L10.3456524,5.2593571 C10.3456524,4.6044618 10.8904165,4.07158121 11.5604839,4.07158121 L56.2741768,4.07158121 C56.9442442,4.07158121 57.4892629,4.6044618 57.4892629,5.2593571 L57.4892629,18.9379536 L55.0593453,18.9379536 L55.0593453,13.0660577 C55.0593453,10.277399 52.7389408,8.00867233 49.8865064,8.00867233 L49.8865064,8.00867233 Z M16.7333228,13.0660577 C16.7333228,12.4111624 17.2780869,11.8782818 17.9481543,11.8782818 L27.5295326,11.8782818 C28.1996,11.8782818 28.7446187,12.4111624 28.7446187,13.0660577 L28.7446187,18.9379536 L16.7333228,18.9379536 L16.7333228,13.0660577 Z M39.0900419,13.0660577 C39.0900419,12.4111624 39.6350607,11.8782818 40.3048734,11.8782818 L49.8865064,11.8782818 C50.5565738,11.8782818 51.1015925,12.4111624 51.1015925,13.0660577 L51.1015925,18.9379536 L39.0900419,18.9379536 L39.0900419,13.0660577 Z M59.4678846,43.9198438 L8.36652135,43.9198438 C7.27546517,43.9198438 6.38764494,44.7878913 6.38764494,45.8548976 L6.38764494,50.1652541 L3.95772734,50.1652541 L3.95772734,38.4214624 L63.8769333,38.4214624 L63.8769333,50.1652541 L61.4470157,50.1652541 L61.4470157,45.8548976 C61.4470157,44.7878913 60.5594502,43.9198438 59.4678846,43.9198438 L59.4678846,43.9198438 Z M61.4470157,19.1702796 L61.4470157,5.2593571 C61.4470157,2.47069836 59.1266112,0.201722694 56.2741768,0.201722694 L11.5604839,0.201722694 C8.70804944,0.201722694 6.38764494,2.47069836 6.38764494,5.2593571 L6.38764494,19.1702796 C2.66801948,20.0560068 -2.54681648e-05,23.3504041 -2.54681648e-05,27.1184177 L-2.54681648e-05,52.1003079 C-2.54681648e-05,53.1673141 0.887794757,54.0351126 1.97885094,54.0351126 L8.36652135,54.0351126 C9.45783221,54.0351126 10.3456524,53.1673141 10.3456524,52.1003079 L10.3456524,47.7897023 L57.4892629,47.7897023 L57.4892629,52.1003079 C57.4892629,53.1673141 58.3768285,54.0351126 59.4678846,54.0351126 L65.8558097,54.0351126 C66.9468659,54.0351126 67.8346861,53.1673141 67.8346861,52.1003079 L67.8346861,27.1184177 C67.8346861,23.3504041 65.1663865,20.0560068 61.4470157,19.1702796 L61.4470157,19.1702796 Z" id="Fill-1"></path>
                        </g>
                    </g>
                </g>
            </g>
        </g>
    </g>
</svg>