<?xml version="1.0" encoding="UTF-8"?>
<svg width="54px" height="54px" viewBox="0 0 54 54" version="1.1" xmlns="http://www.w3.org/2000/svg" xmlns:xlink="http://www.w3.org/1999/xlink">
    <!-- Generator: Sketch 54.1 (76490) - https://sketchapp.com -->
    <title>Group 4</title>
    <desc>Created with Sketch.</desc>
    <g id="-" stroke="none" stroke-width="1" fill="none" fill-rule="evenodd">
        <g id="YTQP_WEB_ETAPA0_LANDING_1A-Copy-4" transform="translate(-951.000000, -2391.000000)" fill="#4EB700">
            <g id="seccion" transform="translate(-4.000000, 2152.000000)">
                <g id="Group-27" transform="translate(934.000000, 222.000000)">
                    <g id="Group-4" transform="translate(21.000000, 17.000000)">
                        <path d="M35.015625,50.8965517 L48.7265625,50.8965517 L48.7265625,47.7931034 L35.015625,47.7931034 L35.015625,50.8965517 Z M35.015625,44.6896552 L48.7265625,44.6896552 L48.7265625,39.5172414 L35.015625,39.5172414 L35.015625,44.6896552 Z M3.26953125,32.1724138 C3.26953125,29.9743448 4.40300391,27.8911034 6.46122656,26.3065862 C6.84333984,26.0124828 7.06640625,25.5624828 7.06640625,25.086 L7.06640625,22.2413793 C7.06640625,18.3054828 10.3309805,15.1034483 14.34375,15.1034483 C18.3565195,15.1034483 21.6210938,18.3054828 21.6210938,22.2413793 L21.6210938,25.086 C21.6210938,25.5623793 21.8442656,26.0124828 22.2263789,26.3066897 C24.2844961,27.8911034 25.4179688,29.9743448 25.4179688,32.1724138 C25.4179688,36.3863793 21.2852813,39.8832414 15.9257813,40.4658621 L15.9257813,36.6724138 L20.9179336,33 C21.616875,32.4857586 21.758625,31.5132414 21.2343398,30.8275862 C20.7101602,30.141931 19.718543,30.003 19.0194961,30.5172414 L15.9257813,32.7931034 L15.9257813,27.6206897 C15.9257813,26.7637241 15.2174531,26.0689655 14.34375,26.0689655 C13.4700469,26.0689655 12.7617188,26.7637241 12.7617188,27.6206897 L12.7617188,32.7931034 L9.66800391,30.5172414 C8.9690625,30.0032069 7.97733984,30.1421379 7.45316016,30.8275862 C6.928875,31.5132414 7.070625,32.4857586 7.76956641,33 L12.7617188,36.6724138 L12.7617188,40.4658621 C7.40221875,39.8832414 3.26953125,36.3863793 3.26953125,32.1724138 L3.26953125,32.1724138 Z M52.4179688,50.8965517 L51.890625,50.8965517 L51.890625,47.7931034 L52.4179688,47.7931034 C53.2916719,47.7931034 54,47.0983448 54,46.2413793 C54,45.3844138 53.2916719,44.6896552 52.4179688,44.6896552 L51.890625,44.6896552 L51.890625,37.9655172 C51.890625,37.1085517 51.1822969,36.4137931 50.3085938,36.4137931 L33.4335938,36.4137931 C32.5598906,36.4137931 31.8515625,37.1085517 31.8515625,37.9655172 L31.8515625,44.6896552 L31.3242188,44.6896552 C30.4505156,44.6896552 29.7421875,45.3844138 29.7421875,46.2413793 C29.7421875,47.0983448 30.4505156,47.7931034 31.3242188,47.7931034 L31.8515625,47.7931034 L31.8515625,50.8965517 L15.9257812,50.8965517 L15.9257812,43.5848276 C19.0695937,43.3067586 21.9916055,42.2031724 24.281332,40.4064828 C27.0547383,38.2303448 28.5820312,35.306069 28.5820312,32.1724138 C28.5820312,29.234069 27.2401523,26.4857586 24.7851562,24.3595862 L24.7851562,22.2413793 C24.7851562,16.5942414 20.1011836,12 14.34375,12 C8.58631641,12 3.90234375,16.5942414 3.90234375,22.2413793 L3.90234375,24.3595862 C1.44734766,26.4857586 0.10546875,29.2341724 0.10546875,32.1724138 C0.10546875,35.306069 1.63276172,38.2303448 4.40616797,40.4064828 C6.69589453,42.2031724 9.61790625,43.3067586 12.7617188,43.5848276 L12.7617188,50.8965517 L1.58203125,50.8965517 C0.708328125,50.8965517 0,51.5913103 0,52.4482759 C0,53.3052414 0.708328125,54 1.58203125,54 L52.4179688,54 C53.2916719,54 54,53.3052414 54,52.4482759 C54,51.5913103 53.2916719,50.8965517 52.4179688,50.8965517 L52.4179688,50.8965517 Z" id="Fill-1"></path>
                        <path d="M37.88,3.20610687 C41.607464,3.20610687 44.64,6.32233588 44.64,10.1526718 C44.64,10.7727328 44.56044,11.3803969 44.404752,11.9694656 L37.88,11.9694656 C35.780032,11.9694656 33.998824,13.3982137 33.408208,15.3594962 C31.985072,14.0652977 31.12,12.1811756 31.12,10.1526718 C31.12,6.32233588 34.152536,3.20610687 37.88,3.20610687 M50.88,16.778626 C50.88,17.6625496 50.180184,18.3816794 49.32,18.3816794 L45.16,18.3816794 C44.298464,18.3816794 43.6,19.0994198 43.6,19.9847328 C43.6,20.8700458 44.298464,21.5877863 45.16,21.5877863 C46.020184,21.5877863 46.72,22.306916 46.72,23.1908397 C46.72,24.0747634 46.020184,24.7938931 45.16,24.7938931 L33.72,24.7938931 C32.859816,24.7938931 32.16,24.0747634 32.16,23.1908397 C32.16,22.306916 32.859816,21.5877863 33.72,21.5877863 L37.88,21.5877863 C38.741536,21.5877863 39.44,20.8700458 39.44,19.9847328 C39.44,19.0994198 38.741536,18.3816794 37.88,18.3816794 C37.019816,18.3816794 36.32,17.6625496 36.32,16.778626 C36.32,15.8947023 37.019816,15.1755725 37.88,15.1755725 L49.32,15.1755725 C50.180184,15.1755725 50.88,15.8947023 50.88,16.778626 M32.379024,18.5833435 C30.449928,19.1772214 29.04,21.0178473 29.04,23.1908397 C29.04,25.8426107 31.139448,28 33.72,28 L45.16,28 C47.740552,28 49.84,25.8426107 49.84,23.1908397 C49.84,22.626458 49.744944,22.0845191 49.570328,21.5810534 C52.035024,21.4469313 54,19.3441527 54,16.778626 C54,14.126855 51.900552,11.9694656 49.32,11.9694656 L47.602024,11.9694656 C47.707064,11.3738779 47.76,10.7672824 47.76,10.1526718 C47.76,4.55448855 43.327832,0 37.88,0 C32.432168,0 28,4.55448855 28,10.1526718 C28,13.5810687 29.691144,16.7265802 32.379024,18.5833435" id="Fill-3"></path>
                    </g>
                </g>
            </g>
        </g>
    </g>
</svg>