<?xml version="1.0" encoding="UTF-8"?>
<svg width="56px" height="56px" viewBox="0 0 56 56" version="1.1" xmlns="http://www.w3.org/2000/svg" xmlns:xlink="http://www.w3.org/1999/xlink">
    <!-- Generator: Sketch 54.1 (76490) - https://sketchapp.com -->
    <title>Group 3</title>
    <desc>Created with Sketch.</desc>
    <g id="-" stroke="none" stroke-width="1" fill="none" fill-rule="evenodd">
        <g id="YTQP_WEB_ETAPA0_LANDING_1A-Copy-4" transform="translate(-199.000000, -2649.000000)" fill="#51B8AE">
            <g id="seccion" transform="translate(-4.000000, 2152.000000)">
                <g id="Group-31" transform="translate(182.000000, 478.000000)">
                    <g id="Group-3" transform="translate(21.000000, 19.000000)">
                        <path d="M49.439829,45.8658744 L48.1341094,47.6375158 L35.8567577,47.6375158 L34.5512568,45.8659839 C33.3893655,44.2896106 32.5257399,42.5549651 31.976677,40.7316609 L36.1215547,43.0510159 L41.9946679,39.7644056 L47.8684374,43.0510159 L51.9999713,40.7392133 C51.4507991,42.5656917 50.5913298,44.3034019 49.439829,45.8658744 L49.439829,45.8658744 Z M23.1467182,35.1533877 L20.8337635,32.8386299 L22.4811709,31.1901256 L24.7941255,33.504774 L23.1467182,35.1533877 Z M6.07633208,52.2363841 C5.43867541,52.8746172 4.40092474,52.8746172 3.7631587,52.2363841 C2.78687681,51.2594967 3.4542835,50.230837 3.7631587,49.9218451 L18.511512,35.1626914 L20.8244667,37.4774493 L6.07633208,52.2363841 Z M25.2738446,24.8077948 C26.0531419,24.0401857 27.0762364,23.6295099 28.1513933,23.6434107 C30.6208637,23.6813916 32.8443495,23.2084359 34.3797567,22.7585751 C34.4007567,24.6101187 34.1415378,27.3787872 32.6702244,29.3832397 C31.5983487,30.8432622 30.056707,31.6914302 27.9598776,31.9757948 C27.9474088,31.9767799 27.9293619,31.9762326 27.9091275,31.9745908 L24.0325469,28.0951713 C24.0257656,27.9977562 24.0212812,27.9001222 24.0212812,27.8024882 C24.0213906,26.6671097 24.4661097,25.6036433 25.2738446,24.8077948 L25.2738446,24.8077948 Z M35.1334603,15.0157166 L48.8742505,15.0157166 L50.0341732,20.8132284 L37.5561182,20.8132284 C37.5180556,20.4735891 37.1175241,18.1180044 37.1175241,18.1180044 C37.1175241,18.1180044 34.8490852,19.1452411 34.2972879,19.3364593 L35.1334603,15.0157166 Z M49.6237979,3.28671977 C48.3107502,5.87763303 47.8179061,8.83784803 48.2379064,11.7292157 L35.7532889,11.7292157 C36.1732891,8.83806694 35.6803357,5.87763303 34.3671786,3.28671977 L49.6237979,3.28671977 Z M52.7007374,36.5817777 L47.8684374,39.2855392 L41.9946679,35.9990384 L36.1215547,39.2855392 L31.2840047,36.578494 C31.2565516,35.8740406 31.2733953,35.1644427 31.335411,34.453203 C32.9502245,33.7787403 34.2843817,32.7355231 35.3168823,31.3289147 C36.9712897,29.0751234 37.5128056,26.3091913 37.6396807,24.0997293 L50.6915173,24.0997293 L52.3906591,32.5927935 C52.6553467,33.9154498 52.7561905,35.2547432 52.7007374,36.5817777 L52.7007374,36.5817777 Z M55.6110987,31.9476648 L51.5836898,11.8173271 C50.9967832,8.88414757 51.6587211,5.80736281 53.3996441,3.37581627 L55.8170519,0 L28.1737058,0 L30.5910043,3.37581627 C32.3320366,5.80725336 32.9941933,8.88414757 32.4052086,11.8276159 L30.7878794,20.1856125 C29.9862695,20.300431 29.1137846,20.3708107 28.2026902,20.3571288 C26.2395171,20.322322 24.2894689,20.9882473 22.9697493,22.465892 C20.4816852,25.2517449 20.7439666,28.1149827 20.753701,28.2710657 L1.44101656,47.5977835 C0.511765958,48.5277146 0,49.7640108 0,51.0790051 C0,52.3942184 0.511875333,53.6305145 1.44112594,54.5604456 C2.40001719,55.5201485 3.65990863,56 4.9196907,56 C6.17958214,56 7.43947359,55.5201485 8.39847421,54.5604456 L27.6916899,35.2529919 C27.7754712,35.2586836 27.8613306,35.2624051 27.9501432,35.2624051 C27.9657838,35.2624051 27.9820807,35.2610916 27.9978307,35.2608727 C27.8488619,39.7565248 29.202269,44.1451297 31.9082082,47.8168033 L34.1983035,50.9240166 L49.7925636,50.9240166 L52.0825495,47.8168033 C55.4333642,43.2706924 56.7192869,37.4865341 55.6110987,31.9476648 L55.6110987,31.9476648 Z" id="Fill-1"></path>
                    </g>
                </g>
            </g>
        </g>
    </g>
</svg>