<svg xmlns="http://www.w3.org/2000/svg" width="61" height="60" viewBox="0 0 61 60">
    <g fill="none" fill-rule="evenodd">
        <g fill="#F7B500">
            <g>
                <g>
                    <g>
                        <g>
                            <path d="M2.032 57.967l1.015-2.032H57.84l1.015 2.032H2.032zm27.295-14.372c.626-.944.98-2.043 1.024-3.176l2.29 2.569c.55.708.849 1.58.847 2.478v6.403c.003.716.197 1.418.562 2.033H21.386l7.941-10.307zm-13.089 6.992l7.035-9.694c.801-1.08.72-1.626 1.459-6.823.237.33-.538-.558 3.897 4.417l-.52 2.981c-.115.691.299.032-8.567 11.495-.474.703-1.329 1.043-2.155.856-.825-.187-1.452-.862-1.577-1.7-.065-.548.089-1.098.428-1.532zm5.442-20.2l-6.596-2.286c-.53-.158-.862-.686-.774-1.234.071-.278.254-.514.505-.652.25-.137.547-.165.82-.076 1.035.36 1.096.413 1.407.378 3.126 1.288 3.033 1.282 3.312 1.282.484 0 .902-.343.996-.82.094-.476-.161-.952-.61-1.137-4.591-1.891-3.608-1.499-3.88-1.571-.264-.266-.353-.662-.227-1.016l.994-2.877 7.616 2.643c-.378 1.123-1.885 5.621-2.27 6.742-.184.53-.76.81-1.29.626l-.003-.002zm-.397-20.57c.187-.529.763-.81 1.295-.63l5.754 2.002c.525.186.802.761.621 1.288l-.507 1.477c-.233.396-.42.816-.558 1.254-.053.169.796.407-7.598-2.511l.993-2.88zM25.897 21.1l-7.603-2.643 1.328-3.84 7.575 2.636-1.3 3.847zm5.974-7.587c1.626-.702 3.521-.139 4.502 1.338l4.796 7.204c.565.85 1.517 1.36 2.536 1.358h3.988c.56 0 1.015.455 1.015 1.016 0 .562-.454 1.017-1.015 1.017H40.65c-.982-.001-1.904-.477-2.477-1.277l-3.855-5.412c-.205-.31-.563-.485-.933-.454-.37.032-.694.263-.844.604-.15.341-.1.737.127 1.031l1.546 2.17-2.322 6.975c-.351 1.035-.119 2.18.61 2.993l6.059 6.831c.658.744 1.02 1.705 1.016 2.698v10.093c.03 1.11-.782 2.061-1.88 2.205-.563.042-1.119-.154-1.533-.54-.413-.385-.648-.926-.646-1.493v-6.403c-.005-1.37-.467-2.7-1.313-3.776l-7.785-8.731c-.995-1.287-1.31-2.976-.846-4.536 3.813-12.055 3.856-11.378 3.872-11.48.465-1.377.758-2.705 2.43-3.431h-.004zm9.132 40.39c.393-.668.601-1.429.602-2.205V41.604c.002-1.492-.544-2.933-1.534-4.049l-6.065-6.836c-.24-.27-.315-.649-.196-.99l1.857-5.576.854 1.197c.954 1.334 2.49 2.126 4.128 2.127h6.03v26.425h-5.676zM2.033 60h56.822c.705.001 1.36-.364 1.73-.965.37-.601.402-1.352.085-1.982l-1.015-2.033c-.343-.688-1.047-1.122-1.815-1.118h-9.132V27.29c1.213-.427 2.024-1.574 2.024-2.862 0-1.287-.811-2.434-2.024-2.862v-5.268c0-.561-.454-1.017-1.015-1.017-.56 0-1.014.456-1.014 1.017v5.081h-2.974c-.339 0-.656-.17-.844-.452l-4.797-7.208c-1.542-2.32-4.535-3.18-7.072-2.032-.165-1.113-.932-2.043-1.991-2.416l-5.755-2.002c-1.59-.547-3.324.297-3.878 1.888l-1 2.877c-.52-.155-1.07.128-1.248.642-.177.514.08 1.077.585 1.277l-1.329 3.843c-.518-.15-1.063.133-1.24.644-.176.51.077 1.07.576 1.274-.982 2.84-1.307 3.385-1.116 4.429-1.335.32-2.29 1.497-2.332 2.871-.043 1.374.839 2.607 2.152 3.01 6.871 2.395 7.236 2.709 8.503 2.314l-.914 6.441c-.101.7.326.164-7.402 10.596-1 1.313-1.11 3.102-.274 4.527H3.047c-.768-.004-1.472.43-1.815 1.118L.217 57.053c-.317.63-.285 1.38.085 1.982.37.6 1.025.966 1.73.965z" transform="translate(-200 -2771) translate(-4 2152) translate(182 606) translate(22 13)"/>
                            <path d="M38.5 2c2.393 0 4.333 1.79 4.333 4s-1.94 4-4.333 4c-2.393 0-4.333-1.79-4.333-4s1.94-4 4.333-4m0 10c3.59 0 6.5-2.686 6.5-6s-2.91-6-6.5-6S32 2.686 32 6c.004 3.312 2.912 5.997 6.5 6" transform="translate(-200 -2771) translate(-4 2152) translate(182 606) translate(22 13)"/>
                        </g>
                    </g>
                </g>
            </g>
        </g>
    </g>
</svg>
