<?xml version="1.0" encoding="UTF-8"?>
<svg width="60px" height="60px" viewBox="0 0 60 60" version="1.1" xmlns="http://www.w3.org/2000/svg" xmlns:xlink="http://www.w3.org/1999/xlink">
    <!-- Generator: Sketch 54.1 (76490) - https://sketchapp.com -->
    <title>Group 5</title>
    <desc>Created with Sketch.</desc>
    <g id="-" stroke="none" stroke-width="1" fill="none" fill-rule="evenodd">
        <g id="YTQP_WEB_ETAPA0_LANDING_1A-Copy-4" transform="translate(-948.000000, -2515.000000)" fill="#990664">
            <g id="seccion" transform="translate(-4.000000, 2152.000000)">
                <g id="Group-30" transform="translate(934.000000, 350.000000)">
                    <g id="Group-5" transform="translate(18.000000, 13.000000)">
                        <path d="M51.4896373,49.3436293 C50.6539896,49.3436293 49.9740933,50.0191506 49.9740933,50.8494208 L49.9740933,56.988417 L42.6295337,56.988417 L42.6295337,50.8494208 C42.6295337,50.0191506 41.9496373,49.3436293 41.1139896,49.3436293 L39.821114,49.3436293 L47.4376554,39.2530888 L50.2939896,39.7072587 C54.1617746,40.3224324 56.9689119,43.5932432 56.9689119,47.484556 L56.9689119,56.988417 L53.0051813,56.988417 L53.0051813,50.8494208 C53.0051813,50.0191506 52.325285,49.3436293 51.4896373,49.3436293 L51.4896373,49.3436293 Z M28.5233161,18.6486486 L46.4766839,18.6486486 L46.4766839,23.0501931 C46.4766839,27.9681081 42.4497668,31.969112 37.5,31.969112 C32.5502332,31.969112 28.5233161,27.9681081 28.5233161,23.0501931 L28.5233161,18.6486486 Z M35.5181347,36.7042471 L35.5181347,34.8172587 C36.8305959,35.0344402 38.1701036,35.0344402 39.4818653,34.8172587 L39.4818653,36.7042471 C39.4818653,37.4482239 40.018601,38.0734749 40.7579534,38.1910425 L44.0549611,38.7151737 L37.5,47.3991892 L30.9450389,38.7151737 L34.2420466,38.1910425 C34.981399,38.0734749 35.5181347,37.4482239 35.5181347,36.7042471 L35.5181347,36.7042471 Z M23.5103627,49.3436293 C22.674715,49.3436293 21.9948187,50.0191506 21.9948187,50.8494208 L21.9948187,56.988417 L18.0310881,56.988417 L18.0310881,47.484556 C18.0310881,43.5932432 20.8382254,40.3224324 24.7057772,39.7072587 L27.562228,39.2530888 L35.178886,49.3436293 L34.0025907,49.3436293 C33.166943,49.3436293 32.4870466,50.0191506 32.4870466,50.8494208 L32.4870466,56.988417 L25.0259067,56.988417 L25.0259067,50.8494208 C25.0259067,50.0191506 24.3460104,49.3436293 23.5103627,49.3436293 L23.5103627,49.3436293 Z M35.5181347,56.988417 L39.5984456,56.988417 L39.5984456,52.3552124 L35.5181347,52.3552124 L35.5181347,56.988417 Z M53.4647409,15.6370656 L21.5351425,15.6370656 C21.6272409,14.4081081 22.663057,13.4362934 23.923057,13.4362934 L51.076943,13.4362934 C52.336943,13.4362934 53.3727591,14.4081081 53.4647409,15.6370656 L53.4647409,15.6370656 Z M37.5,3.01158301 C41.881671,3.01158301 45.6163212,6.17142857 46.3458808,10.4247104 L28.6541192,10.4247104 C29.3836788,6.17142857 33.118329,3.01158301 37.5,3.01158301 L37.5,3.01158301 Z M57.3816062,40.423668 C55.6917746,38.453166 53.3447798,37.1426641 50.7731347,36.733668 L42.5129534,35.4202703 L42.5129534,33.893166 C46.7702332,31.9510425 49.507772,27.7201158 49.507772,23.0503089 L49.507772,18.6487645 L54.9870466,18.6487645 C55.8226943,18.6487645 56.5025907,17.9732432 56.5025907,17.142973 L56.5025907,15.8155598 C56.5025907,12.8430116 54.0686269,10.4247104 51.076943,10.4247104 L49.4124093,10.4247104 C49.0548575,7.61930502 47.7012435,5.03223938 45.5785492,3.11108108 C43.3618912,1.10490347 40.4928497,0 37.5,0 C34.5071503,0 31.6381088,1.10490347 29.4215674,3.11108108 C27.2987565,5.03223938 25.9451425,7.61930502 25.5878238,10.4247104 L23.923057,10.4247104 C20.9313731,10.4247104 18.4974093,12.8430116 18.4974093,15.815444 L18.4974093,17.1428571 C18.4974093,17.9731274 19.1773057,18.6486486 20.0129534,18.6486486 L25.492228,18.6486486 L25.492228,23.0501931 C25.492228,27.7202317 28.2298834,31.9511583 32.4870466,33.893166 L32.4870466,35.4202703 L24.2268653,36.733668 C21.6583679,37.1422008 19.3131218,38.4507336 17.623057,40.4182239 C15.9315933,42.3874517 15,44.897027 15,47.484556 L15,58.4942085 C15,59.3244788 15.6798964,60 16.515544,60 L58.484456,60 C59.3201036,60 60,59.3244788 60,58.4942085 L60,47.484556 C60,44.9002703 59.0700389,42.3925483 57.3816062,40.423668 L57.3816062,40.423668 Z" id="Fill-1"></path>
                        <path d="M6.52427184,35.2614249 L6.52427184,25.7489378 L18.407301,30.5051813 L6.52427184,35.2614249 Z M8.50485437,56.9689119 L6.52427184,56.9689119 L6.52427184,38.5261399 L23.0480388,31.9123057 C23.6262524,31.6807772 24,31.1284197 24,30.5051813 C24,29.8817098 23.6262524,29.3293523 23.0479223,29.0979404 L6.52427184,22.4842228 L6.52427184,16.515544 C6.52427184,15.6798964 5.84481553,15 5.00970874,15 C4.17460194,15 3.49514563,15.6798964 3.49514563,16.515544 L3.49514563,56.9689119 L1.51456311,56.9689119 C0.679456311,56.9689119 0,57.6488083 0,58.484456 C0,59.3201036 0.679456311,60 1.51456311,60 L8.50485437,60 C9.33996117,60 10.0194175,59.3201036 10.0194175,58.484456 C10.0194175,57.6488083 9.33996117,56.9689119 8.50485437,56.9689119 L8.50485437,56.9689119 Z" id="Fill-3"></path>
                    </g>
                </g>
            </g>
        </g>
    </g>
</svg>