<svg xmlns="http://www.w3.org/2000/svg" width="34" height="34" viewBox="0 0 34 34">
    <g fill="none" fill-rule="evenodd">
        <g>
            <g>
                <g>
                    <g>
                        <g fill="#E13B3D" transform="translate(-172 -3422) translate(147 3047) translate(0 167) translate(25 208)">
                            <circle cx="17" cy="17" r="17"/>
                        </g>
                        <g fill="#FFF">
                            <path d="M16.5 7.564l-2.47-2.47c-.293-.292-.767-.292-1.06 0l-5.283 5.283L5.78 8.47c-.293-.293-.767-.293-1.06 0L1.5 11.69V2.25c0-.414.336-.75.75-.75h13.5c.414 0 .75.336.75.75v5.314zm0 8.186c0 .414-.336.75-.75.75H2.25c-.414 0-.75-.336-.75-.75v-1.94l3.75-3.75 4.345 4.345c.146.147.338.22.53.22s.384-.073.53-.22c.293-.293.293-.767 0-1.06l-1.907-1.908L13.5 6.686l3 3v6.064zM15.75 0H2.25C1.01 0 0 1.01 0 2.25v13.5C0 16.99 1.01 18 2.25 18h13.5c1.24 0 2.25-1.01 2.25-2.25V2.25C18 1.01 16.99 0 15.75 0z" transform="translate(-172 -3422) translate(147 3047) translate(0 167) translate(25 208) translate(8 8)"/>
                            <path d="M4.5 3C3.672 3 3 3.672 3 4.5S3.672 6 4.5 6 6 5.328 6 4.5 5.328 3 4.5 3" transform="translate(-172 -3422) translate(147 3047) translate(0 167) translate(25 208) translate(8 8)"/>
                        </g>
                    </g>
                </g>
            </g>
        </g>
    </g>
</svg>
