<svg xmlns="http://www.w3.org/2000/svg" width="56" height="57" viewBox="0 0 56 57">
    <g fill="none" fill-rule="evenodd">
        <g fill="#51B8AE">
            <g>
                <g>
                    <g>
                        <path d="M2.091 54.871h9.992v-5.44H2.091v5.44zm41.826 0h9.992v-5.44h-9.992v5.44zM5.693 45.648H9.41c.448 0 .813.371.813.827v.828H4.88v-.828c0-.456.364-.827.813-.827zm1.046-2.129h1.626V24.835H6.74v18.684zm3.485-21.64c0 .456-.365.827-.813.827H5.693c-.449 0-.813-.371-.813-.828v-.827h5.344v.827zm40.083.827H46.59c-.448 0-.813-.371-.813-.828v-.827h5.344v.827c0 .457-.365.828-.813.828zM47.635 43.52h1.626V24.835h-1.626v18.684zm-1.86 2.956c0-.456.366-.827.814-.827h3.718c.448 0 .813.371.813.827v.828h-5.344v-.828zM10.457 43.73V24.625c1.11-.436 1.854-1.53 1.86-2.747v-.827h1.626v.828c.005 1.217.748 2.31 1.859 2.746v19.104c-1.11.436-1.854 1.529-1.86 2.746v.828h-1.626v-.828c-.005-1.217-.748-2.31-1.859-2.746zm10.922-21.85c0 .456-.365.827-.814.827h-3.718c-.448 0-.813-.371-.813-.828v-.827h5.345v.827zm0 24.596v.828h-5.345v-.828c0-.456.365-.827.813-.827h3.718c.449 0 .814.371.814.827zm-3.486-2.956h1.627V24.835h-1.627v18.684zM34.39 24.625v19.104c-1.11.436-1.854 1.529-1.859 2.746v.828H23.47v-.828c-.005-1.217-.749-2.31-1.859-2.746V24.625c1.11-.436 1.854-1.53 1.859-2.747v-.827h9.062v.828c.005 1.217.749 2.31 1.859 2.746zm5.577-2.747c0 .457-.365.828-.813.828h-3.718c-.449 0-.814-.371-.814-.828v-.827h5.345v.827zm0 24.597v.828h-5.345v-.828c0-.456.365-.827.814-.827h3.718c.448 0 .813.371.813.827zM36.48 43.52h1.627V24.835H36.48v18.684zm3.718.21V24.625c1.11-.436 1.854-1.53 1.86-2.747v-.827h1.626v.828c.005 1.217.748 2.31 1.859 2.746v19.104c-1.11.436-1.854 1.529-1.86 2.746v.828h-1.626v-.828c-.005-1.217-.748-2.31-1.859-2.746zM14.174 54.87h27.652v-5.44H14.174v5.44zM2.904 17.266h50.191c.449 0 .814.372.814.828 0 .457-.365.828-.814.828H2.905c-.449 0-.814-.371-.814-.828 0-.456.365-.828.814-.828zm4.624-2.128L28 2.315l20.472 12.823H7.528zm47.426 32.165h-1.742v-.828c-.005-1.217-.749-2.31-1.86-2.746V24.625c1.111-.436 1.855-1.53 1.86-2.747v-.83C54.76 20.986 56 19.685 56 18.094c0-1.63-1.303-2.956-2.905-2.956h-.633L28.548.158c-.338-.21-.758-.21-1.096 0L3.538 15.139h-.633C1.303 15.138 0 16.464 0 18.094c0 1.59 1.24 2.892 2.788 2.954v.83c.005 1.218.749 2.31 1.86 2.747v19.104c-1.111.436-1.855 1.529-1.86 2.746v.828H1.046c-.577 0-1.046.478-1.046 1.064v7.569C0 56.523.47 57 1.046 57h53.908c.577 0 1.046-.477 1.046-1.064v-7.569c0-.586-.469-1.064-1.046-1.064z" transform="translate(-577 -2387) translate(-4 2152) translate(562 222) translate(19 13)"/>
                        <path d="M30.09 9.5c0 .877-.713 1.59-1.59 1.59-.877 0-1.59-.713-1.59-1.59 0-.877.713-1.59 1.59-1.59.877 0 1.59.713 1.59 1.59M28.5 6C26.57 6 25 7.57 25 9.5s1.57 3.5 3.5 3.5S32 11.43 32 9.5 30.43 6 28.5 6" transform="translate(-577 -2387) translate(-4 2152) translate(562 222) translate(19 13)"/>
                    </g>
                </g>
            </g>
        </g>
    </g>
</svg>
