<?xml version="1.0" encoding="UTF-8"?>
<svg width="68px" height="42px" viewBox="0 0 68 42" version="1.1" xmlns="http://www.w3.org/2000/svg" xmlns:xlink="http://www.w3.org/1999/xlink">
    <!-- Generator: Sketch 54.1 (76490) - https://sketchapp.com -->
    <title>Group 12</title>
    <desc>Created with Sketch.</desc>
    <g id="-" stroke="none" stroke-width="1" fill="none" fill-rule="evenodd">
        <g id="YTQP_WEB_ETAPA0_LANDING_1A-Copy-4" transform="translate(-571.000000, -2528.000000)" fill="#E13B3D">
            <g id="seccion" transform="translate(-4.000000, 2152.000000)">
                <g id="Group-29" transform="translate(562.000000, 350.000000)">
                    <g id="Group-12" transform="translate(13.000000, 26.000000)">
                        <path d="M34.5253075,34.099819 L34.4031012,34.095306 C34.2582113,34.0886553 34.1136777,34.0799856 33.970213,34.0690595 C33.9271023,34.0657341 33.8844666,34.0616962 33.8405246,34.0576583 L33.7971764,34.0535016 C33.7109551,34.0459008 33.6248525,34.0368748 33.5397,34.0276114 C33.3615567,34.007778 33.197071,33.9864008 33.034248,33.9619357 L33.0033699,33.9576602 C27.1584882,33.0606468 22.6220096,28.3293851 21.9716678,22.4523025 C21.9628794,22.3723753 21.954566,22.2922106 21.9472028,22.2110958 L21.9426898,22.1626406 C21.9385331,22.1170358 21.9342577,22.0713123 21.9306948,22.0265388 C21.9200062,21.8855677 21.9114554,21.7442402 21.905161,21.601844 L21.9000542,21.4690675 C21.8939973,21.2948428 21.891147,21.1506651 21.8909095,21.0155134 L21.8909095,20.950669 C21.9005292,18.3459692 22.6750963,15.8314101 24.1323085,13.6762264 C26.5818977,10.0534942 30.644515,7.89070971 35,7.89070971 C41.3572219,7.89070971 46.7841794,12.4292199 47.9042257,18.6821859 C48.0402084,19.4416723 48.1092093,20.2214671 48.1092093,20.9999555 C48.1092093,21.1393827 48.1062402,21.2905674 48.0997083,21.4748868 L48.0951953,21.5970935 C48.0887822,21.7419838 48.079875,21.8865178 48.0690676,22.0292703 C48.0652673,22.0758252 48.0609918,22.1222614 48.0567164,22.1683412 L48.0536286,22.2015948 C48.0457903,22.2885289 48.0368831,22.3751068 48.0273821,22.4612097 C48.0081426,22.6347217 47.9865279,22.8005142 47.963013,22.9575183 L47.9574312,22.9975412 C47.5332126,25.7607891 46.2564002,28.2740418 44.2648768,30.2654519 C42.2734722,32.2567433 39.7602265,33.5334405 37.000668,33.9570664 L36.961714,33.9625295 C36.8030477,33.9864008 36.6390371,34.007778 36.4610126,34.0274926 C36.3752663,34.0368748 36.2892825,34.0459008 36.2009234,34.0536204 L36.0302621,34.0689407 C35.8863223,34.0799856 35.742145,34.0886553 35.5991553,34.0950685 L35.4754051,34.099819 C35.107361,34.1125266 34.8939454,34.1125266 34.5253075,34.099819 M50.9462007,19.6917862 C50.9201918,19.3742152 50.8842069,19.0521312 50.8388397,18.7346789 C50.8196002,18.5994084 50.7986981,18.4648505 50.7760145,18.3301738 C50.7627131,18.2519092 50.7494118,18.1736447 50.7351603,18.0953802 C50.6251865,17.4994298 50.4798216,16.9044296 50.3031034,16.3266498 C50.2564299,16.1747526 50.2085687,16.0234491 50.1577385,15.8735708 C50.0402827,15.5270217 49.9065564,15.1745345 49.7610727,14.8277479 L49.7402893,14.7775114 C49.1483785,13.3802702 48.3580161,12.0721009 47.3925981,10.8912451 L47.3416492,10.8278259 C47.0308485,10.4515862 46.6962954,10.0824722 46.3461844,9.72998503 L46.2697015,9.65350196 C45.9176904,9.30386507 45.5483399,8.96895473 45.1690135,8.65577794 L45.1104637,8.60874797 C43.9279485,7.64202097 42.6197828,6.85153756 41.2187451,6.25796242 L41.173853,6.23967299 C40.8261173,6.09359508 40.4736311,5.95986847 40.1264892,5.8421748 C39.9764925,5.79134444 39.8250707,5.74336438 39.6730551,5.69680946 C39.0944456,5.51973453 38.4993283,5.37436919 37.9046859,5.2649889 C37.8264216,5.25049987 37.747801,5.2370797 37.6692992,5.2237783 C37.5350979,5.20121342 37.4003028,5.18031121 37.265389,5.16107168 C36.9443748,5.11534811 36.6222917,5.0792443 36.3078094,5.05371035 C35.428019,4.98209655 34.5722186,4.98209655 33.6919531,5.05371035 C33.3777083,5.0792443 33.0556252,5.11534811 32.7347298,5.16107168 C32.5994596,5.18031121 32.4647833,5.20121342 32.330582,5.2237783 C32.2519614,5.2370797 32.1735784,5.25049987 32.0955516,5.2649889 C31.500553,5.37448795 30.9055544,5.51973453 30.3265886,5.69680946 C30.1746918,5.74336438 30.0233887,5.79134444 29.8735108,5.8421748 C29.5266064,5.95974971 29.174239,6.09347632 28.8289973,6.23836661 L28.7773357,6.25950634 C27.3802172,6.85153756 26.0721703,7.6419022 24.8913177,8.60720406 L24.8278987,8.65827195 C24.4516601,8.96883597 24.0824284,9.30362755 23.7297047,9.65409578 L23.6535781,9.73022256 C23.3037046,10.0823535 22.968914,10.4515862 22.6564506,10.8303199 L22.608827,10.8892261 C21.6419839,12.0719822 20.8516215,13.3800327 20.258523,14.7800054 L20.2395211,14.8260853 C20.0934436,15.174297 19.9598361,15.5265467 19.8422615,15.8733333 C19.7913125,16.0233303 19.7434514,16.1746338 19.6967778,16.3267686 C19.5199409,16.9049046 19.374576,17.5000237 19.2649585,18.0953802 C19.2504695,18.1736447 19.2370494,18.2522655 19.2239855,18.3304113 C19.2011832,18.4646129 19.180281,18.5994084 19.1610415,18.7345602 C19.1155556,19.0541501 19.0794519,19.3762341 19.0537993,19.6919049 C19.0180519,20.1299012 19,20.5700351 19,20.9999555 C19,21.1751302 19.0036816,21.3598059 19.0117575,21.5834358 C19.0134201,21.6312971 19.0150828,21.6792771 19.0171018,21.727851 C19.0258902,21.91989 19.0363412,22.0928083 19.0491676,22.2557505 C19.0527304,22.3036118 19.0571246,22.3511168 19.0617563,22.4004032 L19.0676945,22.4646538 C19.077433,22.5714213 19.0881216,22.677595 19.099879,22.7830561 C19.1204249,22.9699883 19.1457212,23.1663028 19.1750555,23.36523 L19.1855066,23.4381502 C19.5901294,26.1022313 20.6310801,28.5470768 22.2793807,30.7043982 C22.3062209,30.7396707 22.3360302,30.7747056 22.370115,30.8112845 C23.1885053,31.8624516 24.1363464,32.8104142 25.187867,33.6292818 C25.2237331,33.6627729 25.2588868,33.6925823 25.2948717,33.7202539 C27.4528997,35.3689154 29.8979758,36.4099877 32.5647811,36.8148492 L32.6285564,36.8239939 C32.8349651,36.8542784 33.0272411,36.8792185 33.2161917,36.9000019 C33.3223651,36.9118782 33.4287761,36.9226856 33.5356621,36.9324241 L33.6154703,36.9397874 C33.6582247,36.9435878 33.7010978,36.9476257 33.7436147,36.9508323 C33.9110694,36.9637774 34.0839871,36.9743473 34.2729378,36.9828982 C34.3224616,36.9850359 34.3718667,36.9868174 34.4203217,36.9883613 C34.6388441,36.9963184 34.8230443,37 35,37 C35.1768369,37 35.3611559,36.9963184 35.5803909,36.9883613 L35.7277748,36.9826607 C35.9150628,36.9743473 36.0878618,36.9638962 36.2556728,36.9509511 C36.299021,36.9476257 36.3422504,36.9435878 36.3855986,36.9396686 L36.464813,36.9324241 C36.5714614,36.9226856 36.6778724,36.9118782 36.7829769,36.9001207 C36.9720463,36.8793373 37.1627784,36.8546347 37.3647929,36.824944 L37.4380692,36.8144929 C40.1022617,36.409869 42.5471003,35.3689154 44.7038219,33.7209665 C44.7395693,33.6937699 44.7748417,33.6638417 44.8114205,33.6297569 C45.8625847,32.8113643 46.8104258,31.8636393 47.6289349,30.8122346 C47.6624259,30.7768433 47.6922352,30.7416896 47.7201443,30.7051108 C49.3689199,28.5469581 50.4099894,26.1018751 50.8149685,23.4347061 L50.8237569,23.3718807 C50.8534474,23.1715284 50.8792188,22.9735512 50.9000022,22.7837687 C50.9118784,22.677595 50.9226858,22.5708275 50.9323055,22.4641787 L50.9396688,22.3836577 C50.9437067,22.341022 50.9475071,22.2986237 50.9507137,22.2563443 C50.9637775,22.0887704 50.9742286,21.9158521 50.9828982,21.7269009 C50.9849172,21.6774957 50.9866986,21.6279717 50.9883613,21.5796354 C50.9963184,21.3600435 51,21.1758428 51,20.9999555 C51,20.571579 50.9819481,20.1314451 50.9462007,19.6917862" id="Fill-1"></path>
                        <path d="M34.9820151,39.1363765 C25.0226184,39.1363765 16.9200207,31.0112 16.9200207,21.0237882 C16.9200207,11.0364941 25.0226184,2.9112 34.9820151,2.9112 C44.9415291,2.9112 53.0441268,11.0364941 53.0441268,21.0237882 C53.0441268,31.0112 44.9415291,39.1363765 34.9820151,39.1363765 M34.9820151,0.0475529412 C23.4479704,0.0475529412 14.0643726,9.45743529 14.0643726,21.0237882 C14.0643726,32.5900235 23.4479704,42.0000235 34.9820151,42.0000235 C46.5159425,42.0000235 55.8996575,32.5900235 55.8996575,21.0237882 C55.8996575,9.45743529 46.5159425,0.0475529412 34.9820151,0.0475529412" id="Fill-3"></path>
                        <path d="M5.99157778,14.4204941 L5.99157778,38.6456706 C5.99157778,38.9162588 5.7629,39.1362588 5.48191111,39.1362588 C5.20092222,39.1362588 4.97224444,38.9162588 4.97224444,38.6456706 L4.97224444,14.4206118 C4.97224444,13.9115529 4.68783333,13.4367294 4.22998889,13.1814353 C3.45595556,12.7502588 2.97513333,11.9494353 2.97513333,11.0914353 L2.97513333,9.96002353 L7.98881111,9.96002353 L7.98868889,11.0913176 C7.98868889,11.9493176 7.50786667,12.7501412 6.73383333,13.1812 C6.27598889,13.4363765 5.99157778,13.9112 5.99157778,14.4204941 M9.47613333,0.0475529412 C8.6559,0.0475529412 7.98868889,0.689788235 7.98868889,1.47931765 L7.98868889,7.09637647 L6.96935556,7.09637647 L6.96935556,1.47931765 C6.96935556,0.689788235 6.30214444,0.0475529412 5.48191111,0.0475529412 C4.6618,0.0475529412 3.99446667,0.689788235 3.99446667,1.47931765 L3.99446667,7.09637647 L2.97488889,7.09637647 L2.97488889,1.47931765 C2.97488889,0.689788235 2.30755556,0.0475529412 1.48744444,0.0475529412 C0.667211111,0.0475529412 0,0.689788235 0,1.47931765 L0,11.0913176 C0,12.6542588 0.743844444,14.1654353 1.99711111,15.1628471 L1.99711111,38.6457882 C1.99711111,40.4953176 3.56033333,42.0000235 5.48178889,42.0000235 C7.40324444,42.0000235 8.96646667,40.4953176 8.96646667,38.6457882 L8.96646667,15.1628471 C10.2196111,14.1654353 10.9635778,12.6542588 10.9635778,11.0913176 L10.9635778,1.47931765 C10.9635778,0.689788235 10.2963667,0.0475529412 9.47613333,0.0475529412" id="Fill-6"></path>
                        <path d="M63.500588,20.8735059 C62.683988,20.8735059 62.019788,20.2222118 62.019788,19.4217412 L62.019788,4.36291765 C62.019788,3.56244706 62.683988,2.91115294 63.500588,2.91115294 C64.317188,2.91115294 64.981388,3.56244706 64.981388,4.36291765 L64.981388,20.8735059 L63.500588,20.8735059 Z M64.981268,23.7371529 L64.981268,38.6457412 C64.981268,38.9162118 64.756748,39.1363294 64.480868,39.1363294 C64.204868,39.1363294 63.980468,38.9162118 63.980468,38.6456235 L63.979148,23.7371529 L64.981268,23.7371529 Z M63.500468,0.0475058824 C61.073228,0.0475058824 59.098628,1.98338824 59.098628,4.36291765 L59.098628,19.4217412 C59.098628,20.8758588 59.828108,22.2051529 61.058228,23.0102118 L61.059548,38.6457412 C61.059548,40.4952706 62.594348,41.9999765 64.480988,41.9999765 C66.367508,41.9999765 67.902308,40.4952706 67.902308,38.6457412 L67.902308,4.36291765 C67.902188,1.98338824 65.927588,0.0475058824 63.500468,0.0475058824 L63.500468,0.0475058824 Z" id="Fill-9"></path>
                    </g>
                </g>
            </g>
        </g>
    </g>
</svg>