<?xml version="1.0" encoding="UTF-8"?>
<svg width="60px" height="60px" viewBox="0 0 60 60" version="1.1" xmlns="http://www.w3.org/2000/svg" xmlns:xlink="http://www.w3.org/1999/xlink">
    <!-- Generator: Sketch 54.1 (76490) - https://sketchapp.com -->
    <title>Group 8</title>
    <desc>Created with Sketch.</desc>
    <g id="-" stroke="none" stroke-width="1" fill="none" fill-rule="evenodd">
        <g id="YTQP_WEB_ETAPA0_LANDING_1A-Copy-4" transform="translate(-948.000000, -2645.000000)" fill="#0071BC">
            <g id="seccion" transform="translate(-4.000000, 2152.000000)">
                <g id="Group-33" transform="translate(934.000000, 478.000000)">
                    <g id="Group-8" transform="translate(18.000000, 15.000000)">
                        <path d="M40.7350046,42.0000656 C40.7350046,40.7510664 41.7510172,39.7350405 43,39.7350405 C44.2488516,39.7350405 45.2649954,40.7510664 45.2649954,42.0000656 C45.2649954,43.2489336 44.2488516,44.2649595 43,44.2649595 C41.7510172,44.2649595 40.7350046,43.2489336 40.7350046,42.0000656 M43,47 L43.000525,47 C45.7537735,46.9967187 47.9965875,44.7540065 48,42.0000656 C48,39.2429747 45.7570547,37 43,37 C40.2429453,37 38,39.2429747 38,42.0000656 C38,44.7570253 40.2429453,47 43,47" id="Fill-1"></path>
                        <path d="M13.7350405,42.0000656 C13.7350405,40.7510664 14.7510664,39.7350405 16.0000656,39.7350405 C17.2489336,39.7350405 18.2650908,40.7510664 18.2650908,42.0000656 C18.2650908,43.2489336 17.2489336,44.2649595 16.0000656,44.2649595 C14.7510664,44.2649595 13.7350405,43.2489336 13.7350405,42.0000656 M16.0000656,47 L16.0005906,47 C18.7540065,46.9967187 20.9967187,44.7540065 21,42.0000656 C21,39.2429747 18.7570253,37 16.0000656,37 C13.2429747,37 11,39.2429747 11,42.0000656 C11,44.7570253 13.2429747,47 16.0000656,47" id="Fill-3"></path>
                        <path d="M2.61846421,21.8805996 L5.21657179,21.8805996 L5.21657179,13.9207851 L2.61846421,13.9207851 L2.61846421,21.8805996 Z M7.83491034,8.69416067 L7.83491034,4.56993503 C7.83616692,3.49505535 8.71162715,2.61959513 9.7860042,2.61846421 L50.2134932,2.61846421 C51.2884985,2.61959513 52.1639587,3.49505535 52.1650897,4.5694324 L52.1650897,8.69416067 L7.83491034,8.69416067 Z M31.3092321,31.2990538 L52.1650897,31.2990538 L52.1650897,11.3126249 L31.3092321,11.3126249 L31.3092321,31.2990538 Z M7.83491034,31.2990538 L28.6907679,31.2990538 L28.6907679,11.3126249 L7.83491034,11.3126249 L7.83491034,31.2990538 Z M52.1650897,33.917518 L52.1650897,48.4746359 C52.1639587,49.5496412 51.2884985,50.4251015 50.2139958,50.4262324 L9.78650683,50.4262324 C8.71162715,50.4251015 7.83616692,49.5496412 7.83491034,48.4751385 L7.83491034,33.917518 L52.1650897,33.917518 Z M19.9966072,53.0445709 L19.9966072,56.7885551 C19.9961046,57.1150149 19.7300863,57.3809075 19.4043804,57.3815358 L13.6448398,57.3815358 C13.3182544,57.3812845 13.0519848,57.1152662 13.0514821,56.789309 L13.0514821,53.0445709 L19.9966072,53.0445709 Z M46.9486435,53.0445709 L46.9486435,56.7885551 C46.9480152,57.1150149 46.6821226,57.3809075 46.3564167,57.3815358 L40.5968761,57.3815358 C40.270165,57.3812845 40.0038954,57.1152662 40.0035184,56.789309 L40.0035184,53.0445709 L46.9486435,53.0445709 Z M54.7835539,21.8805996 L57.3816615,21.8805996 L57.3816615,13.9207851 L54.7835539,13.9207851 L54.7835539,21.8805996 Z M59.1655043,11.3023209 L54.7835539,11.3023209 L54.7835539,4.56905543 C54.780915,2.05224865 52.7313052,0.00263882082 50.2139958,0 L9.78562722,0 C7.26882045,0.00263882082 5.21921062,2.05224865 5.21657179,4.5694324 L5.21657179,11.3023209 L0.834495671,11.3023209 C0.374335583,11.3023209 0,11.6766565 0,12.1369422 L0,23.6644425 C0,24.1246026 0.374335583,24.4990638 0.834495671,24.4990638 L5.21657179,24.4990638 L5.21657179,48.4756412 C5.21921062,50.9923223 7.26882045,53.0420578 9.7860042,53.0445709 L10.4330179,53.0445709 L10.4330179,56.7898116 C10.4351541,58.5581986 11.875699,59.9982408 13.6444629,60 L19.4050087,60 C21.172893,59.9977382 22.6128096,58.5575703 22.6150714,56.789309 L22.6150714,53.0445709 L37.3850542,53.0445709 L37.3850542,56.7898116 C37.3870648,58.5581986 38.8276096,59.9982408 40.5964992,60 L46.357045,60 C48.1248037,59.9977382 49.5648459,58.5575703 49.5669821,56.789309 L49.5669821,53.0445709 L50.2144984,53.0445709 C52.7313052,53.0420578 54.780915,50.9923223 54.7835539,48.4751385 L54.7835539,24.4990638 L59.1655043,24.4990638 C59.6256644,24.4990638 60,24.1246026 60,23.6644425 L60,12.1369422 C60,11.6766565 59.6256644,11.3023209 59.1655043,11.3023209 L59.1655043,11.3023209 Z" id="Fill-5"></path>
                        <polygon id="Fill-7" points="24 43 35 43 35 40 24 40"></polygon>
                    </g>
                </g>
            </g>
        </g>
    </g>
</svg>