<?xml version="1.0" encoding="UTF-8"?>
<svg width="27px" height="27px" viewBox="0 0 27 27" version="1.1" xmlns="http://www.w3.org/2000/svg" xmlns:xlink="http://www.w3.org/1999/xlink">
    <!-- Generator: Sketch 54.1 (76490) - https://sketchapp.com -->
    <title>Group 2</title>
    <desc>Created with Sketch.</desc>
    <defs>
        <polygon id="path-1" points="0 0 15 0 15 15 0 15"></polygon>
    </defs>
    <g id="Symbols" stroke="none" stroke-width="1" fill="none" fill-rule="evenodd">
        <g id="footer_desk" transform="translate(-1034.000000, -88.000000)">
            <g id="footer-copy">
                <g id="Group-20" transform="translate(926.000000, 43.000000)">
                    <g id="Group-10-Copy" transform="translate(3.000000, 0.000000)">
                        <g id="Group-17-Copy-3" transform="translate(0.000000, 45.000000)">
                            <g id="Group-2" transform="translate(105.000000, 0.000000)">
                                <path d="M13.5,27 C6.04427157,27 0,20.9558135 0,13.4998101 C0,6.04456636 6.04427157,0 13.5,0 C20.9557284,0 27,6.04456636 27,13.4998101 C27,20.9558135 20.9557284,27 13.5,27 Z" id="Fill-9" fill="#FB0063"></path>
                                <path d="M13.5000145,16 C12.1183658,16 11,14.8810477 11,13.5000147 C11,12.1189816 12.1189815,11 13.5000145,11 C14.8810475,11 15.9999997,12.1189816 15.9999997,13.5000147 C16.0006447,14.8810477 14.8816632,16 13.5000145,16 M13.5,10 C11.5658364,10 10,11.5675682 10,13.5 C10,15.4341369 11.5675682,17 13.5,17 C15.4341369,17 17,15.4324585 17,13.5 C17,11.5658631 15.4324318,10 13.5,10" id="Fill-1" fill="#FFFFFF"></path>
                                <g id="Group-5" transform="translate(6.000000, 6.000000)">
                                    <mask id="mask-2" fill="white">
                                        <use xlink:href="#path-1"></use>
                                    </mask>
                                    <g id="Clip-4"></g>
                                    <path d="M12.7770145,12.7793711 C11.8313987,13.7249683 10.5195131,13.6405949 7.48453064,13.6405949 C4.35951887,13.6405949 3.10640283,13.6868831 2.19201748,12.7700256 C1.13888204,11.7218913 1.32951693,10.0387888 1.32951693,7.48699185 C1.32951693,4.03392312 0.975141698,1.54710543 4.44075915,1.36959906 C5.23701943,1.3414746 5.47139458,1.33209978 7.47577087,1.33209978 L7.50389588,1.35084942 C10.8345133,1.35084942 13.4476497,1.00210609 13.6045346,4.46703983 C13.6401303,5.25763018 13.6482748,5.49513541 13.6482748,7.49633737 C13.6476303,10.5850478 13.7063999,11.845639 12.7770145,12.7793711 M10.5926381,0.0471048207 C9.21263721,-0.0172591828 5.79451002,-0.0141244772 4.41327867,0.0471048207 C3.19950836,0.103998264 2.12888267,0.397107894 1.26576688,1.26023592 C-0.176724275,2.70269857 0.00764107763,4.64642117 0.00764107763,7.49698189 C0.00764107763,10.4144261 -0.154868792,12.3131496 1.26576688,13.7337279 C2.71388305,15.1812002 4.68576908,14.9918581 7.50263612,14.9918581 C10.3926282,14.9918581 11.3901581,14.9937038 12.4120338,14.5980863 C13.8013804,14.0587412 14.8501506,12.8168704 14.9526604,10.5863076 C15.0176409,9.20571875 15.0138909,5.78827433 14.9526604,4.40704098 C14.8289103,1.7739761 13.4157747,0.177121866 10.5926381,0.0471048207" id="Fill-3" fill="#FFFFFF" mask="url(#mask-2)"></path>
                                </g>
                                <path d="M17.5,9 C17.7761454,9 18,9.22385459 18,9.5 C18,9.77614541 17.7761454,10 17.5,10 C17.2238546,10 17,9.77614541 17,9.5 C17,9.22385459 17.2238546,9 17.5,9" id="Fill-6" fill="#FFFFFF"></path>
                            </g>
                        </g>
                    </g>
                </g>
            </g>
        </g>
    </g>
</svg>