<?xml version="1.0" encoding="UTF-8"?>
<svg width="39px" height="38px" viewBox="0 0 39 38" version="1.1" xmlns="http://www.w3.org/2000/svg" xmlns:xlink="http://www.w3.org/1999/xlink">
    <!-- Generator: Sketch 54.1 (76490) - https://sketchapp.com -->
    <title>Group 32</title>
    <desc>Created with Sketch.</desc>
    <g id="DISEÑO" stroke="none" stroke-width="1" fill="none" fill-rule="evenodd">
        <g id="YTQP_Web_404" transform="translate(-592.000000, -785.000000)" fill="#FF5600">
            <g id="Group-17-Copy-5" transform="translate(565.000000, 755.000000)">
                <g id="Group-32" transform="translate(27.000000, 30.000000)">
                    <path d="M36.5632232,33.8570137 C36.5632232,34.8038063 35.7933899,35.5700014 34.843826,35.5700014 L4.15694535,35.5700014 C3.20815285,35.5700014 2.43754821,34.8038063 2.43754821,33.8570137 L2.43754821,12.9991411 C2.43754821,12.0523484 3.20815285,11.2861534 4.15694535,11.2861534 L34.843826,11.2861534 C35.7933899,11.2861534 36.5632232,12.0523484 36.5632232,12.9991411 L36.5632232,33.8570137 Z M36.8509464,4 L31.6881267,4 L31.6881267,5.50088152 C31.6881267,7.38217079 30.4438972,8.85769179 28.8579481,8.85769179 L28.4252062,8.85769179 C26.8377144,8.85769179 25.5934848,7.38217079 25.5934848,5.50088152 L25.5934848,4 L13.4057438,4 L13.4057438,5.50088152 C13.4057438,7.38217079 12.163057,8.85769179 10.5755652,8.85769179 L10.1435946,8.85769179 C8.55610277,8.85769179 7.31187326,7.38217079 7.31187326,5.50088152 L7.31187326,4 L2.14982496,4 C0.962677268,4 0,4.95832015 0,6.14257945 L0,35.8581891 C0,37.0401429 0.962677268,38 2.14982496,38 L36.8509464,38 C38.0380941,38 39,37.0401429 39,35.8581891 L39,6.14257945 C39,4.95832015 38.0380941,4 36.8509464,4 L36.8509464,4 Z" id="Fill-1"></path>
                    <path d="M33.1186709,33 L29.8821203,33 C29.3955696,33 29,32.6059503 29,32.1177401 L29,28.8822599 C29,28.3956322 29.3955696,28 29.8821203,28 L33.1186709,28 C33.6052215,28 34,28.3956322 34,28.8822599 L34,32.1177401 C34,32.6059503 33.6052215,33 33.1186709,33" id="Fill-4"></path>
                    <path d="M26.1186709,33 L22.8821203,33 C22.3947785,33 22,32.6059503 22,32.1177401 L22,28.8822599 C22,28.3956322 22.3947785,28 22.8821203,28 L26.1186709,28 C26.6052215,28 27,28.3956322 27,28.8822599 L27,32.1177401 C27,32.6059503 26.6052215,33 26.1186709,33" id="Fill-6"></path>
                    <path d="M18.1178797,33 L14.8813291,33 C14.3947785,33 14,32.6059503 14,32.1177401 L14,28.8822599 C14,28.3956322 14.3947785,28 14.8813291,28 L18.1178797,28 C18.6044304,28 19,28.3956322 19,28.8822599 L19,32.1177401 C19,32.6059503 18.6044304,33 18.1178797,33" id="Fill-8"></path>
                    <path d="M10.1180193,33 L6.8819807,33 C6.39471603,33 6,32.6059503 6,32.1177401 L6,28.8822599 C6,28.3956322 6.39471603,28 6.8819807,28 L10.1180193,28 C10.604493,28 11,28.3956322 11,28.8822599 L11,32.1177401 C11,32.6059503 10.604493,33 10.1180193,33" id="Fill-10"></path>
                    <path d="M33.1186709,26 L29.8821203,26 C29.3955696,26 29,25.6052215 29,25.1178797 L29,21.8821203 C29,21.3939873 29.3955696,21 29.8821203,21 L33.1186709,21 C33.6052215,21 34,21.3939873 34,21.8821203 L34,25.1178797 C34,25.6052215 33.6052215,26 33.1186709,26" id="Fill-12"></path>
                    <path d="M26.1186709,26 L22.8821203,26 C22.3947785,26 22,25.6052215 22,25.1178797 L22,21.8821203 C22,21.3939873 22.3947785,21 22.8821203,21 L26.1186709,21 C26.6052215,21 27,21.3939873 27,21.8821203 L27,25.1178797 C27,25.6052215 26.6052215,26 26.1186709,26" id="Fill-14"></path>
                    <path d="M18.0626483,24.6218354 C18.0626483,24.8655063 17.8641038,25.0632911 17.6212625,25.0632911 L15.3779465,25.0632911 C15.1351052,25.0632911 14.9373517,24.8655063 14.9373517,24.6218354 L14.9373517,22.3789557 C14.9373517,22.1352848 15.1351052,21.9375 15.3779465,21.9375 L17.6212625,21.9375 C17.8641038,21.9375 18.0626483,22.1352848 18.0626483,22.3789557 L18.0626483,24.6218354 Z M18.1172283,21 L14.8819807,21 C14.394716,21 14,21.3939873 14,21.8821203 L14,25.1178797 C14,25.6052215 14.394716,26 14.8819807,26 L18.1172283,26 C18.604493,26 19,25.6052215 19,25.1178797 L19,21.8821203 C19,21.3939873 18.604493,21 18.1172283,21 L18.1172283,21 Z" id="Fill-16"></path>
                    <path d="M10.1180193,26 L6.8819807,26 C6.39471603,26 6,25.6052215 6,25.1178797 L6,21.8821203 C6,21.3939873 6.39471603,21 6.8819807,21 L10.1180193,21 C10.604493,21 11,21.3939873 11,21.8821203 L11,25.1178797 C11,25.6052215 10.604493,26 10.1180193,26" id="Fill-18"></path>
                    <path d="M33.1186709,19 L29.8821203,19 C29.3955696,19 29,18.604493 29,18.1180193 L29,14.8819807 C29,14.394716 29.3955696,14 29.8821203,14 L33.1186709,14 C33.6052215,14 34,14.394716 34,14.8819807 L34,18.1180193 C34,18.604493 33.6052215,19 33.1186709,19" id="Fill-20"></path>
                    <path d="M26.1186709,19 L22.8821203,19 C22.3947785,19 22,18.604493 22,18.1180193 L22,14.8819807 C22,14.394716 22.3947785,14 22.8821203,14 L26.1186709,14 C26.6052215,14 27,14.394716 27,14.8819807 L27,18.1180193 C27,18.604493 26.6052215,19 26.1186709,19" id="Fill-22"></path>
                    <path d="M18.1178797,19 L14.8813291,19 C14.3947785,19 14,18.604493 14,18.1180193 L14,14.8819807 C14,14.394716 14.3947785,14 14.8813291,14 L18.1178797,14 C18.6044304,14 19,14.394716 19,14.8819807 L19,18.1180193 C19,18.604493 18.6044304,19 18.1178797,19" id="Fill-24"></path>
                    <path d="M10.1178797,19 L6.88132911,19 C6.39477848,19 6,18.604493 6,18.1180193 L6,14.8819807 C6,14.394716 6.39477848,14 6.88132911,14 L10.1178797,14 C10.6044304,14 11,14.394716 11,14.8819807 L11,18.1180193 C11,18.604493 10.6044304,19 10.1178797,19" id="Fill-24-Copy"></path>
                    <path d="M12,1.76424308 L12,5.23575692 C12,6.21061675 11.4074699,7 10.6769361,7 L10.3230639,7 C9.59126398,7 9,6.21061675 9,5.23575692 L9,1.76424308 C9,0.788750226 9.59126398,0 10.3230639,0 L10.6769361,0 C11.4074699,0 12,0.788750226 12,1.76424308" id="Fill-26"></path>
                    <path d="M30,1.76424308 L30,5.23575692 C30,6.21061675 29.4077199,7 28.6774942,7 L28.3231386,7 C27.5922801,7 27,6.21061675 27,5.23575692 L27,1.76424308 C27,0.788750226 27.5922801,0 28.3231386,0 L28.6774942,0 C29.4077199,0 30,0.788750226 30,1.76424308" id="Fill-29"></path>
                </g>
            </g>
        </g>
    </g>
</svg>