<?xml version="1.0" encoding="UTF-8"?>
<svg width="41px" height="51px" viewBox="0 0 41 51" version="1.1" xmlns="http://www.w3.org/2000/svg" xmlns:xlink="http://www.w3.org/1999/xlink">
    <!-- Generator: Sketch 54.1 (76490) - https://sketchapp.com -->
    <title>Group 12</title>
    <desc>Created with Sketch.</desc>
    <g id="DISEÑO" stroke="none" stroke-width="1" fill="none" fill-rule="evenodd">
        <g id="YTQP_Web_404" transform="translate(-205.000000, -645.000000)" fill="#3CAEA3">
            <g id="boton" transform="translate(178.000000, 624.000000)">
                <g id="Group-12" transform="translate(27.000000, 21.000000)">
                    <g id="Group-14">
                        <path d="M37.7663693,50.2555701 L2.34836933,50.2555701 C1.70036933,50.2555701 1.07436933,49.9835701 0.631369329,49.5085701 C0.189369329,49.0345701 -0.0386306713,48.3915701 0.00536932872,47.7455701 L2.50836933,10.6905701 L12.0753693,10.6905701 L12.0753693,13.1935701 L4.84836933,13.1935701 L2.50436933,47.9165701 L37.7663693,47.7525701 L35.2733693,13.1935701 L28.0393693,13.1935701 L28.0393693,10.6905701 L37.6073693,10.6905701 L40.1103693,47.7475701 C40.1533693,48.3945701 39.9243693,49.0375701 39.4823693,49.5115701 C39.0393693,49.9845701 38.4133693,50.2555701 37.7663693,50.2555701" id="Fill-1"></path>
                        <polygon id="Fill-4" points="15.6764693 13.1946701 24.4394693 13.1946701 24.4394693 10.6916701 15.6764693 10.6916701"></polygon>
                        <path d="M29.2907693,17.2155701 L26.7877693,17.2155701 L26.7877693,9.44057015 C26.7877693,6.25757015 24.6727693,3.34557015 21.5637693,2.66757015 C17.1977693,1.71557015 13.3267693,5.02957015 13.3267693,9.23357015 L13.3267693,17.2155701 L10.8237693,17.2155701 L10.8237693,9.53057015 C10.8237693,4.90857015 14.0927693,0.77457015 18.6657693,0.10257015 C24.3717693,-0.73642985 29.2907693,3.68457015 29.2907693,9.23357015 L29.2907693,17.2155701 Z" id="Fill-6"></path>
                        <polygon id="Fill-7" points="9.51446933 18.4676701 14.6364693 18.4676701 14.6364693 15.9646701 9.51446933 15.9646701"></polygon>
                        <polygon id="Fill-8" points="25.4794693 18.4676701 30.6004693 18.4676701 30.6004693 15.9646701 25.4794693 15.9646701"></polygon>
                        <path d="M15.1510693,27.0177701 C14.1320693,27.0177701 13.3030693,27.8467701 13.3030693,28.8657701 C13.3030693,29.8847701 14.1320693,30.7137701 15.1510693,30.7137701 C16.1700693,30.7137701 16.9990693,29.8847701 16.9990693,28.8657701 C16.9990693,27.8467701 16.1700693,27.0177701 15.1510693,27.0177701 M16.3310693,33.0607701 C13.0270693,33.9357701 10.0820693,30.9917701 10.9560693,27.6867701 C11.3400693,26.2347701 12.5130693,25.0597701 13.9640693,24.6727701 C17.2720693,23.7897701 20.2240693,26.7407701 19.3430693,30.0507701 C18.9580693,31.5027701 17.7830693,32.6767701 16.3310693,33.0607701" id="Fill-9"></path>
                        <path d="M24.9645693,37.2267701 C23.9445693,37.2267701 23.1165693,38.0557701 23.1165693,39.0747701 C23.1165693,40.0937701 23.9445693,40.9227701 24.9645693,40.9227701 C25.9845693,40.9227701 26.8125693,40.0937701 26.8125693,39.0747701 C26.8125693,38.0557701 25.9845693,37.2267701 24.9645693,37.2267701 M26.1465693,43.2687701 C22.8395693,44.1467701 19.8935693,41.1997701 20.7705693,37.8937701 C21.1545693,36.4407701 22.3295693,35.2657701 23.7815693,34.8807701 C27.0895693,34.0027701 30.0365693,36.9507701 29.1585693,40.2567701 C28.7735693,41.7097701 27.5995693,42.8837701 26.1465693,43.2687701" id="Fill-10"></path>
                        <polygon id="Fill-11" points="15.7663693 43.3869701 13.6733693 42.0129701 24.9933693 24.7829701 27.0853693 26.1579701"></polygon>
                    </g>
                </g>
            </g>
        </g>
    </g>
</svg>