<?xml version="1.0" encoding="UTF-8"?>
<svg width="38px" height="38px" viewBox="0 0 38 38" version="1.1" xmlns="http://www.w3.org/2000/svg" xmlns:xlink="http://www.w3.org/1999/xlink">
    <!-- Generator: Sketch 54.1 (76490) - https://sketchapp.com -->
    <title>Group 3</title>
    <desc>Created with Sketch.</desc>
    <g id="DISEÑO" stroke="none" stroke-width="1" fill="none" fill-rule="evenodd">
        <g id="YTQP_Web_404" transform="translate(-984.000000, -785.000000)" fill="#E03B3D">
            <g id="Group-17-Copy-6" transform="translate(952.000000, 755.000000)">
                <g id="Group-3" transform="translate(32.000000, 30.000000)">
                    <path d="M19.8256836,31.1049919 C19.5514453,31.117 19.2737188,31.1231542 19,31.1231542 C16.613125,31.1231542 14.3152383,30.6737505 12.1703906,29.7874767 C11.8051602,29.6368499 11.3951758,29.6391765 11.0316523,29.7942312 L4.27277344,32.6793306 L6.55010156,27.2243448 C6.77275781,26.6910345 6.67211719,26.0753935 6.29122656,25.6427262 C4.11765625,23.1736329 2.96875,20.2194118 2.96875,17.1001542 C2.96875,9.32647667 10.1603984,3.0020284 19,3.0020284 C27.8396016,3.0020284 35.03125,9.32647667 35.03125,17.1001542 C35.03125,18.9435497 34.5836367,20.7943002 33.7005078,22.6005456 C33.3372813,23.3436978 33.6384609,24.2440061 34.3734492,24.6113793 C35.1083633,24.9786775 35.9986914,24.6740467 36.3619922,23.9308945 C37.4488516,21.707217 38,19.4090892 38,17.1001542 C38,7.67100811 29.4767187,0 19,0 C8.52357813,0 0,7.67100811 0,17.1001542 C0,20.6591339 1.19328906,24.0297363 3.46133984,26.9041785 L0.116820313,34.9153164 C-0.118007813,35.4778966 0.00779296875,36.1284361 0.434847656,36.5602779 C0.71903125,36.847572 1.09851172,37 1.48467187,37 C1.67919922,37 1.87550781,36.9612738 2.06157422,36.8818702 L11.6305977,32.7971602 C13.9644062,33.6787059 16.4406406,34.1251826 19,34.1251826 C19.3166172,34.1251826 19.6381328,34.1179026 19.9555664,34.1040933 C20.7745703,34.0677688 21.4095117,33.3670953 21.3735156,32.5388357 C21.3378906,31.7106511 20.6435742,31.0665659 19.8256836,31.1049919 L19.8256836,31.1049919 Z M34.5380971,32.3044623 L34.2333202,32 L32,34.233908 L32.3038295,34.5368697 C32.9206475,35.154166 33.9224635,35.154166 34.5380971,34.5381334 C35.1539676,33.9223377 35.1539676,32.920258 34.5380971,32.3044623 L34.5380971,32.3044623 Z M24.8319826,26.7686619 L30.019359,32 L32,29.9981424 L26.84322,24.7961009 L24,24 L24.8319826,26.7686619 Z M36.6940275,30.3182971 C38.4351754,32.0740227 38.4351754,34.928999 36.6949201,36.6838246 C35.8248669,37.5610498 34.6817319,38 33.5388943,38 C32.3960568,38 31.2529217,37.5610498 30.3828685,36.6838246 L22.2157795,28.4671605 C22.0423045,28.2925405 21.9144299,28.077716 21.8432396,27.8409889 L20.0643022,21.936089 C19.9065232,21.4125292 20.043994,20.8441142 20.4229313,20.4523445 C20.8017943,20.0608747 21.3620919,19.9085323 21.8851206,20.054424 L27.8900203,21.7316157 C28.1372891,21.8007736 28.3624645,21.9328637 28.5440479,22.1157346 L36.6940275,30.3182971 Z M11,16.5 C11,17.328525 11.671475,18 12.5,18 C13.328525,18 14,17.328525 14,16.5 C14,15.671475 13.328525,15 12.5,15 C11.671475,15 11,15.671475 11,16.5 L11,16.5 Z M24,16.5 C24,17.328525 24.671475,18 25.5,18 C26.328525,18 27,17.328525 27,16.5 C27,15.671475 26.328525,15 25.5,15 C24.671475,15 24,15.671475 24,16.5 L24,16.5 Z M18.5,15 C19.328525,15 20,15.671475 20,16.5 C20,17.328525 19.328525,18 18.5,18 C17.671475,18 17,17.328525 17,16.5 C17,15.671475 17.671475,15 18.5,15 L18.5,15 Z" id="Fill-1"></path>
                </g>
            </g>
        </g>
    </g>
</svg>