<?xml version="1.0" encoding="UTF-8"?>
<svg width="44px" height="50px" viewBox="0 0 44 50" version="1.1" xmlns="http://www.w3.org/2000/svg" xmlns:xlink="http://www.w3.org/1999/xlink">
    <!-- Generator: Sketch 54.1 (76490) - https://sketchapp.com -->
    <title>Group 8</title>
    <desc>Created with Sketch.</desc>
    <g id="DISEÑO" stroke="none" stroke-width="1" fill="none" fill-rule="evenodd">
        <g id="YTQP_Web_404" transform="translate(-584.000000, -645.000000)" fill="#4FB700">
            <g id="boton-2" transform="translate(565.000000, 624.000000)">
                <g id="Group-8" transform="translate(19.000000, 21.000000)">
                    <g id="Group-15" transform="translate(-0.000100, -0.000200)">
                        <path d="M22.0005645,31.0002 C21.4487763,31.0002 21.0001,30.5522446 21.0001,30.0002 C21.0001,29.4481554 21.4487763,29.0002 22.0005645,29.0002 C22.5514237,29.0002 23.0001,29.4481554 23.0001,30.0002 C23.0001,30.5522446 22.5514237,31.0002 22.0005645,31.0002" id="Fill-4"></path>
                        <path d="M22.0005645,15.0002 C21.4487763,15.0002 21.0001,14.5522446 21.0001,14.0002 C21.0001,13.4481554 21.4487763,13.0002 22.0005645,13.0002 C22.5514237,13.0002 23.0001,13.4481554 23.0001,14.0002 C23.0001,14.5522446 22.5514237,15.0002 22.0005645,15.0002" id="Fill-6"></path>
                        <path d="M22.0006022,2.14389636 C20.8214837,2.14389636 19.8633245,3.09377389 19.8633245,4.26270075 L19.8633245,7.45285548 C19.8633245,7.74160231 20.099349,7.9765825 20.3906134,7.9765825 L23.6095866,7.9765825 C23.9018553,7.9765825 24.1378799,7.74160231 24.1378799,7.45285548 L24.1378799,4.26270075 C24.1378799,3.09377389 23.1787163,2.14389636 22.0006022,2.14389636 L22.0006022,2.14389636 Z M7.51773336,10.1202789 C7.22646901,10.1202789 6.99044445,10.3542634 6.99044445,10.6430102 L6.99044445,17.0243153 C6.99044445,17.3130622 7.22646901,17.5480424 7.51773336,17.5480424 L32.8858541,17.5480424 C32.9682116,17.5480424 33.0485604,17.5291245 33.1218786,17.4922844 L39.5578165,14.3021296 C39.7375969,14.2135142 39.8500852,14.031305 39.8500852,13.8341606 C39.8500852,13.6360205 39.7375969,13.4538113 39.5578165,13.3661916 L33.1218786,10.1750412 C33.0485604,10.1382011 32.9682116,10.1202789 32.8858541,10.1202789 L7.51773336,10.1202789 Z M20.3906134,19.6917387 C20.099349,19.6917387 19.8633245,19.9257232 19.8633245,20.2144701 L19.8633245,23.4056205 C19.8633245,23.695363 20.099349,23.9293475 20.3906134,23.9293475 L23.6095866,23.9293475 C23.9018553,23.9293475 24.1378799,23.695363 24.1378799,23.4056205 L24.1378799,20.2144701 C24.1378799,19.9257232 23.9018553,19.6917387 23.6095866,19.6917387 L20.3906134,19.6917387 Z M11.1143459,26.0720482 C11.0329928,26.0720482 10.9516396,26.0919618 10.8793257,26.1278062 L4.44238355,29.3179609 C4.2636075,29.4065763 4.1511192,29.5877899 4.1511192,29.7869256 C4.1511192,29.9850657 4.2636075,30.1662792 4.44238355,30.2538989 L10.8793257,33.4450494 C10.9516396,33.4818895 11.0329928,33.4998117 11.1143459,33.4998117 L36.4824666,33.4998117 C36.7747353,33.4998117 37.0107599,33.2658272 37.0107599,32.9770803 L37.0107599,26.5967709 C37.0107599,26.3070284 36.7747353,26.0720482 36.4824666,26.0720482 L11.1143459,26.0720482 Z M20.3906134,35.6445037 C20.099349,35.6445037 19.8633245,35.8784882 19.8633245,36.1672351 L19.8633245,47.334768 C19.8633245,47.6235148 20.099349,47.8574993 20.3906134,47.8574993 L23.6095866,47.8574993 C23.9018553,47.8574993 24.1378799,47.6235148 24.1378799,47.334768 L24.1378799,36.1672351 C24.1378799,35.8784882 23.9018553,35.6445037 23.6095866,35.6445037 L20.3906134,35.6445037 Z M18.7816289,50.0002 C18.1860435,50.0002 17.7009377,49.5202828 17.7009377,48.9288497 L17.7009377,36.1672351 C17.7009377,35.8784882 17.4639088,35.6445037 17.1726445,35.6445037 L10.7346979,35.6445037 C10.5669698,35.6445037 10.4002461,35.6046766 10.2505965,35.5309963 L0.597694102,30.7457643 C0.229094042,30.5625594 9.99999993e-05,30.1951539 9.99999993e-05,29.7869256 C9.99999993e-05,29.3786973 0.229094042,29.0102962 0.597694102,28.828087 L10.2516008,24.0418592 C10.4002461,23.968179 10.5669698,23.9293475 10.7346979,23.9293475 L17.1726445,23.9293475 C17.4639088,23.9293475 17.7009377,23.695363 17.7009377,23.4056205 L17.7009377,20.2144701 C17.7009377,19.9257232 17.4639088,19.6917387 17.1726445,19.6917387 L5.90874891,19.6917387 C5.31316353,19.6917387 4.82705337,19.2108259 4.82705337,18.6193927 L4.82705337,9.04892852 C4.82705337,8.45749534 5.31316353,7.9765825 5.90874891,7.9765825 L17.1726445,7.9765825 C17.4639088,7.9765825 17.7009377,7.74160231 17.7009377,7.45285548 L17.7009377,4.26270075 C17.7009377,1.91289889 19.630313,0.0002 22.0006022,0.0002 C24.3708914,0.0002 26.2992623,1.91289889 26.2992623,4.26270075 L26.2992623,7.45285548 C26.2992623,7.74160231 26.5362912,7.9765825 26.8275555,7.9765825 L33.2655021,7.9765825 C33.4332302,7.9765825 33.5999539,8.01541397 33.7485992,8.09008988 L43.4035103,12.875322 C43.771106,13.0575312 44.0001,13.4249366 44.0001,13.8341606 C44.0001,14.2423889 43.771106,14.61079 43.4035103,14.7929993 L33.7496035,19.5782313 C33.5999539,19.6519116 33.4332302,19.6917387 33.2655021,19.6917387 L26.8275555,19.6917387 C26.5362912,19.6917387 26.2992623,19.9257232 26.2992623,20.2144701 L26.2992623,23.4056205 C26.2992623,23.695363 26.5362912,23.9293475 26.8275555,23.9293475 L38.0914511,23.9293475 C38.6870365,23.9293475 39.1731466,24.4092647 39.1731466,25.0006978 L39.1731466,34.5721577 C39.1731466,35.1625952 38.6870365,35.6445037 38.0914511,35.6445037 L26.8275555,35.6445037 C26.5362912,35.6445037 26.2992623,35.8784882 26.2992623,36.1672351 L26.2992623,48.9288497 C26.2992623,49.5202828 25.8141565,50.0002 25.2185711,50.0002 L18.7816289,50.0002 Z" id="Fill-1"></path>
                    </g>
                </g>
            </g>
        </g>
    </g>
</svg>