<?xml version="1.0" encoding="UTF-8"?>
<svg width="45px" height="51px" viewBox="0 0 45 51" version="1.1" xmlns="http://www.w3.org/2000/svg" xmlns:xlink="http://www.w3.org/1999/xlink">
    <!-- Generator: Sketch 54.1 (76490) - https://sketchapp.com -->
    <title>Group 10</title>
    <desc>Created with Sketch.</desc>
    <g id="DISEÑO" stroke="none" stroke-width="1" fill="none" fill-rule="evenodd">
        <g id="YTQP_Web_404" transform="translate(-205.000000, -778.000000)" fill="#F2B30C">
            <g id="Group-17-Copy-4" transform="translate(178.000000, 755.000000)">
                <g id="Group-10" transform="translate(27.000000, 23.000000)">
                    <path d="M34.4504,10.2244 C35.1784,9.4094 35.8934,8.6084 36.6074,7.8064 C37.3644,6.9584 38.1214,6.1104 38.8764,5.2604 C39.1374,4.9664 39.4554,4.8124 39.8504,4.8944 C40.6014,5.0494 40.8824,5.9134 40.3664,6.5124 C39.7844,7.1894 39.1814,7.8494 38.5884,8.5164 C37.4934,9.7434 36.3994,10.9704 35.3044,12.1964 C34.7354,12.8334 34.1554,12.8284 33.5834,12.1864 C32.8014,11.3074 32.0184,10.4274 31.2324,9.5514 C30.9894,9.2814 30.8334,8.9844 30.9104,8.6134 C30.9884,8.2344 31.2194,7.9734 31.5904,7.8654 C31.9874,7.7494 32.3344,7.8634 32.6094,8.1684 C33.1464,8.7644 33.6784,9.3644 34.2124,9.9624 C34.2864,10.0444 34.3604,10.1264 34.4504,10.2244" id="Fill-4"></path>
                    <path d="M13.8186,2.2722 C15.9756,2.2722 17.7306,4.0272 17.7306,6.1842 C17.7306,8.3402 15.9756,10.0952 13.8186,10.0952 C11.6626,10.0952 9.9076,8.3402 9.9076,6.1842 C9.9076,4.0272 11.6626,2.2722 13.8186,2.2722 M13.8186,12.2992 C17.1916,12.2992 19.9356,9.5562 19.9356,6.1842 C19.9356,2.8112 17.1916,0.0672 13.8186,0.0672 C10.4466,0.0672 7.7036,2.8112 7.7036,6.1842 C7.7036,9.5562 10.4466,12.2992 13.8186,12.2992" id="Fill-6"></path>
                    <path d="M30.2649,45.0403 C30.2649,46.5063 29.0729,47.6983 27.6069,47.6983 C26.1419,47.6983 24.9499,46.5063 24.9499,45.0403 L24.9499,36.2663 C24.9499,35.6573 24.4549,35.1643 23.8469,35.1643 L12.5659,35.1643 C12.2409,35.1643 11.9299,35.1023 11.6419,34.9953 L11.6419,34.9633 C11.6079,34.9633 11.5759,34.9603 11.5409,34.9583 C10.5819,34.5563 9.9079,33.6083 9.9079,32.5063 L9.9079,18.7183 C9.9079,16.5613 11.6619,14.8073 13.8189,14.8073 C15.9759,14.8073 17.7309,16.5613 17.7309,18.7183 L17.7309,28.7463 C17.7309,29.3543 18.2239,29.8483 18.8319,29.8483 L27.6079,29.8483 C29.0729,29.8483 30.2649,31.0403 30.2649,32.5063 L30.2649,45.0403 Z M22.7269,38.3053 C22.7269,38.6083 22.6089,38.8943 22.3939,39.1083 C22.1789,39.3233 21.8939,39.4413 21.5899,39.4413 L21.5889,39.4413 L10.7269,39.4413 C9.5479,39.4413 8.1609,38.6133 7.3079,37.7933 C7.2999,37.7863 7.2919,37.7783 7.2849,37.7713 C5.3459,36.0103 4.3759,33.1963 4.1339,31.3113 L2.2149,17.4343 C2.1299,16.8123 2.5649,16.2373 3.1839,16.1523 C3.8069,16.0683 4.3819,16.5023 4.4679,17.1223 L6.3889,31.0183 C6.6809,33.1713 7.9909,36.7283 11.0629,37.1293 C11.5359,37.2843 12.0409,37.3693 12.5659,37.3693 L22.7439,37.3693 L22.7439,38.3053 L22.7269,38.3053 Z M27.6079,27.6433 L19.9349,27.6433 L19.9349,18.7183 C19.9349,15.3463 17.1919,12.6023 13.8189,12.6023 C10.4469,12.6023 7.7029,15.3463 7.7029,18.7183 L7.7029,24.4283 L6.6519,16.8203 C6.3989,14.9983 4.7089,13.7183 2.8839,13.9683 C1.0589,14.2203 -0.2201,15.9103 0.0319,17.7353 L1.9489,31.6023 C2.2509,33.9533 3.4189,37.2313 5.7909,39.3933 C6.7079,40.2723 8.1159,41.1973 9.6249,41.5223 L9.6249,49.3853 C9.6249,49.9943 10.1189,50.4873 10.7269,50.4873 C11.3359,50.4873 11.8289,49.9943 11.8289,49.3853 L11.8289,41.6453 L18.5999,41.6453 L18.5999,49.3853 C18.5999,49.9943 19.0929,50.4873 19.7019,50.4873 C20.3109,50.4873 20.8039,49.9943 20.8039,49.3853 L20.8039,41.6453 L21.5889,41.6453 L21.5909,41.6453 C21.9919,41.6453 22.3789,41.5723 22.7439,41.4383 L22.7439,45.0403 C22.7439,47.7213 24.9259,49.9033 27.6069,49.9033 C30.2879,49.9033 32.4699,47.7213 32.4699,45.0403 L32.4699,32.5063 C32.4699,29.8253 30.2879,27.6433 27.6079,27.6433 L27.6079,27.6433 Z" id="Fill-8"></path>
                    <path d="M35.7493,1.95 C31.9903,1.964 28.9303,5.036 28.9423,8.783 C28.9563,12.538 32.0323,15.603 35.7753,15.591 C39.5263,15.578 42.5973,12.496 42.5843,8.756 C42.5703,5.002 39.4923,1.936 35.7493,1.95 L35.7493,1.95 Z M44.5343,9.379 C44.4553,9.836 44.4063,10.302 44.2923,10.75 C43.4863,13.914 41.5393,16.078 38.4473,17.097 C35.6713,18.013 33.0293,17.568 30.6423,15.868 C28.7493,14.52 27.5793,12.672 27.1523,10.388 C26.3323,5.995 28.8923,1.755 33.1503,0.399 C36.9253,-0.802 41.1463,0.781 43.2123,4.158 C43.9233,5.321 44.3493,6.572 44.4863,7.925 C44.4943,8.004 44.5183,8.082 44.5343,8.16 L44.5343,9.379 Z" id="Fill-1"></path>
                </g>
            </g>
        </g>
    </g>
</svg>