<?xml version="1.0" encoding="UTF-8"?>
<svg width="50px" height="50px" viewBox="0 0 50 50" version="1.1" xmlns="http://www.w3.org/2000/svg" xmlns:xlink="http://www.w3.org/1999/xlink">
    <!-- Generator: Sketch 54.1 (76490) - https://sketchapp.com -->
    <title>Group 8</title>
    <desc>Created with Sketch.</desc>
    <g id="DISEÑO" stroke="none" stroke-width="1" fill="none" fill-rule="evenodd">
        <g id="YTQP_Web_404" transform="translate(-976.000000, -646.000000)" fill="#0071BC">
            <g id="Group-17-Copy-2" transform="translate(952.000000, 624.000000)">
                <g id="Group-8" transform="translate(24.000000, 22.000000)">
                    <path d="M48.4439,49.5047 C48.2779,49.5047 48.1179,49.4667 47.9669,49.3927 L36.0899,43.4527 C36.0159,43.4167 35.9369,43.3987 35.8579,43.3987 C35.7689,43.3987 35.6799,43.4207 35.5999,43.4667 L25.2789,49.3647 C25.2589,49.3757 25.2159,49.3907 25.1749,49.4047 L25.1159,49.4267 C25.0859,49.4387 25.0529,49.4517 25.0229,49.4667 C24.9339,49.4927 24.8429,49.5047 24.7529,49.5047 C24.6619,49.5047 24.5699,49.4927 24.4799,49.4687 C24.4509,49.4517 24.4199,49.4387 24.3879,49.4267 L24.3289,49.4047 C24.2879,49.3907 24.2459,49.3757 24.2259,49.3647 L13.9039,43.4667 C13.8249,43.4207 13.7359,43.3987 13.6469,43.3987 C13.5679,43.3987 13.4889,43.4167 13.4159,43.4527 L1.5359,49.3927 C1.3859,49.4667 1.2259,49.5047 1.0609,49.5047 C0.8639,49.5047 0.6719,49.4497 0.5049,49.3467 C0.1879,49.1507 -9.99999993e-05,48.8147 -9.99999993e-05,48.4427 L-9.99999993e-05,21.5937 C-9.99999993e-05,21.1567 0.2619,20.7707 0.6679,20.6087 L8.5649,17.4487 C8.6899,17.3997 8.8209,17.3737 8.9549,17.3737 C9.3929,17.3737 9.7809,17.6357 9.9439,18.0407 C10.1609,18.5827 9.8949,19.2017 9.3509,19.4207 L2.4479,22.1817 C2.2519,22.2607 2.1219,22.4507 2.1219,22.6627 L2.1219,45.8877 C2.1219,46.0667 2.2149,46.2337 2.3679,46.3287 C2.4509,46.3797 2.5459,46.4057 2.6399,46.4057 C2.7189,46.4057 2.7989,46.3887 2.8729,46.3517 L12.3489,41.6127 C12.5249,41.5257 12.6349,41.3457 12.6349,41.1497 L12.6349,27.9107 C12.6349,27.3257 13.1119,26.8507 13.6969,26.8507 C14.2819,26.8507 14.7569,27.3257 14.7569,27.9107 L14.7569,41.2097 C14.7569,41.3957 14.8569,41.5677 15.0189,41.6597 L22.9159,46.1717 C22.9959,46.2177 23.0849,46.2397 23.1729,46.2397 C23.2619,46.2397 23.3519,46.2167 23.4329,46.1707 C23.5919,46.0777 23.6909,45.9067 23.6909,45.7217 L23.6909,38.9667 C23.6909,38.3817 24.1679,37.9057 24.7529,37.9057 C25.3379,37.9057 25.8129,38.3817 25.8129,38.9667 L25.8129,45.7217 C25.8129,45.9067 25.9119,46.0777 26.0719,46.1707 C26.1519,46.2167 26.2419,46.2397 26.3319,46.2397 C26.4209,46.2397 26.5089,46.2177 26.5889,46.1717 L34.4859,41.6597 C34.6469,41.5677 34.7479,41.3957 34.7479,41.2097 L34.7479,27.9107 C34.7479,27.3257 35.2229,26.8507 35.8079,26.8507 C36.3929,26.8507 36.8699,27.3257 36.8699,27.9107 L36.8699,41.1497 C36.8699,41.3457 36.9799,41.5257 37.1559,41.6127 L46.6319,46.3517 C46.7059,46.3887 46.7849,46.4057 46.8639,46.4057 C46.9589,46.4057 47.0529,46.3797 47.1359,46.3287 C47.2899,46.2337 47.3819,46.0667 47.3819,45.8877 L47.3819,22.6627 C47.3819,22.4507 47.2539,22.2607 47.0569,22.1817 L40.1529,19.4197 C39.6089,19.2017 39.3439,18.5827 39.5609,18.0397 C39.7219,17.6347 40.1099,17.3737 40.5479,17.3737 C40.6829,17.3737 40.8149,17.3997 40.9399,17.4487 L48.8379,20.6087 C49.2429,20.7707 49.5049,21.1567 49.5049,21.5937 L49.5049,48.4427 C49.5049,48.8147 49.3159,49.1507 49.0009,49.3457 C48.8339,49.4497 48.6399,49.5047 48.4439,49.5047" id="Fill-1"></path>
                    <path d="M24.7525,2.1218 C19.2405,2.1218 14.7575,6.6048 14.7575,12.1168 C14.7575,16.7768 22.0865,27.2208 24.3335,30.3088 C24.4305,30.4438 24.5865,30.5228 24.7525,30.5228 C24.9185,30.5228 25.0735,30.4438 25.1715,30.3088 C27.4175,27.2208 34.7475,16.7768 34.7475,12.1168 C34.7475,6.6048 30.2635,2.1218 24.7525,2.1218 M24.7525,33.7108 C24.4195,33.7108 24.1125,33.5588 23.9095,33.2948 C22.7555,31.7888 12.6355,18.3968 12.6355,12.1168 C12.6355,5.4348 18.0705,-0.0002 24.7525,-0.0002 C31.4345,-0.0002 36.8695,5.4348 36.8695,12.1168 C36.8695,18.3968 26.7485,31.7888 25.5945,33.2948 C25.3925,33.5588 25.0845,33.7108 24.7525,33.7108" id="Fill-4"></path>
                    <path d="M24.7525,8.4402 C22.7245,8.4402 21.0745,10.0892 21.0745,12.1172 C21.0745,14.1442 22.7245,15.7942 24.7525,15.7942 C26.7795,15.7942 28.4295,14.1442 28.4295,12.1172 C28.4295,10.0892 26.7795,8.4402 24.7525,8.4402 M24.7525,17.9162 C21.5545,17.9162 18.9525,15.3142 18.9525,12.1172 C18.9525,8.9192 21.5545,6.3182 24.7525,6.3182 C27.9495,6.3182 30.5515,8.9192 30.5515,12.1172 C30.5515,15.3142 27.9495,17.9162 24.7525,17.9162" id="Fill-6"></path>
                </g>
            </g>
        </g>
    </g>
</svg>