<?xml version="1.0" encoding="UTF-8"?>
<svg width="20px" height="22px" viewBox="0 0 20 22" version="1.1" xmlns="http://www.w3.org/2000/svg" xmlns:xlink="http://www.w3.org/1999/xlink">
    <!-- Generator: Sketch 54.1 (76490) - https://sketchapp.com -->
    <title>Group 10</title>
    <desc>Created with Sketch.</desc>
    <g id="DISEÑO" stroke="none" stroke-width="1" fill="none" fill-rule="evenodd">
        <g id="YTQP_Web_noticia" transform="translate(-1167.000000, -48.000000)">
            <g id="HEADER_desk_2-Copy-3" transform="translate(178.000000, 22.000000)">
                <g id="Group-17" transform="translate(983.000000, 21.000000)">
                    <g id="Group-10" transform="translate(5.500000, 3.500000)">
                        <g id="Group-3" transform="translate(5.500000, 20.500000)" fill="#FFFFFF">
                            <path d="M3.5152981,3.00000469 C5.22706392,3.00000469 6.65896266,1.70892656 6.98778544,4.6875e-06 L0.0428107595,4.6875e-06 C0.371810759,1.70892656 1.80370949,3.00000469 3.5152981,3.00000469" id="Fill-1"></path>
                        </g>
                        <g id="Group-6" transform="translate(0.500000, 3.500000)" fill="#FFFFFF">
                            <path d="M14.4494108,8.89270026 C14.4459869,8.89270026 14.442563,8.89353143 14.4391391,8.89353143 C11.1616028,8.89353143 8.493837,6.10957299 8.493837,2.68752623 C8.493837,1.74676779 8.70114145,0.857458701 9.06212272,0.0577911688 C8.87516253,0.0392976623 8.68573396,0.027785974 8.493837,0.027785974 C5.21040843,0.027785974 2.54853489,2.80617558 2.54853489,6.23379117 L2.54853489,8.70552104 C2.54853489,10.4600769 1.81216019,12.1162223 0.520279625,13.2563366 C0.0896262295,13.6402535 -0.101474473,14.2519522 0.0530782201,14.8486899 C0.233190632,15.5428821 0.890577049,15.986186 1.58029133,15.986186 L15.4032023,15.986186 C16.126837,15.986186 16.8089471,15.4967522 16.9557363,14.7565132 C17.0696005,14.1837548 16.8742398,13.6118691 16.4487621,13.2386327 C15.2137738,12.157947 14.4994951,10.5699574 14.4494108,8.89270026" id="Fill-4"></path>
                        </g>
                        <g id="Group-9" transform="translate(11.500000, 0.500000)" fill="#EE2124">
                            <path d="M9.0004972,5.47511615 C9.0004972,7.96039731 6.98586273,9.97503178 4.50041282,9.97503178 C2.01513166,9.97503178 0.000497196263,7.96039731 0.000497196263,5.47511615 C0.000497196263,2.98983499 2.01513166,0.975031776 4.50041282,0.975031776 C6.98586273,0.975031776 9.0004972,2.98983499 9.0004972,5.47511615" id="Fill-7"></path>
                        </g>
                    </g>
                </g>
            </g>
        </g>
    </g>
</svg>