<svg xmlns="http://www.w3.org/2000/svg" width="168" height="182" viewBox="0 0 168 182">
    <g fill="none" fill-rule="evenodd">
        <g fill="#830D63">
            <g>
                <path d="M148.57 63c-2.443 0-4.43-1.977-4.43-4.407 0-11.817-3.037-21.876-9.024-29.9-4.365-5.85-8.813-8.417-8.857-8.442-2.122-1.187-2.885-3.874-1.701-5.988.782-1.396 2.266-2.263 3.87-2.263.744 0 1.483.19 2.137.548.243.134 5.94 3.324 11.472 10.636 5 6.61 10.963 18.119 10.963 35.41 0 2.429-1.988 4.406-4.43 4.406M160.466 48c-2.501 0-4.536-1.986-4.536-4.427 0-15.933-9.47-22.173-9.872-22.43-2.084-1.327-2.686-4.068-1.34-6.109.84-1.273 2.267-2.034 3.815-2.034.86 0 1.7.24 2.427.692.572.355 14.04 8.954 14.04 29.88 0 2.442-2.034 4.428-4.534 4.428M19.428 63C16.987 63 15 61.023 15 58.593c0-17.288 5.96-28.798 10.96-35.41 5.531-7.31 11.228-10.5 11.468-10.633.657-.36 1.396-.55 2.14-.55 1.613 0 3.1.871 3.88 2.274 1.18 2.122.406 4.805-1.723 5.983-.16.091-4.518 2.638-8.845 8.437-5.987 8.025-9.022 18.085-9.022 29.9 0 2.429-1.987 4.406-4.43 4.406M8.534 48C6.034 48 4 46.014 4 43.573 4 22.67 17.461 14.05 18.034 13.693c.732-.454 1.572-.693 2.434-.693 1.56 0 2.99.767 3.827 2.051 1.334 2.05.719 4.787-1.372 6.1-.394.252-9.857 6.454-9.857 22.422 0 2.441-2.033 4.427-4.532 4.427M84 13.138c2.616 0 5.191.105 7.688.313-1.491-2.764-4.42-4.594-7.687-4.594-3.267 0-6.196 1.83-7.686 4.593 2.492-.208 5.066-.312 7.686-.312zM63.087 156.224C65.145 166 73.808 173.144 84 173.144c10.192 0 18.854-7.145 20.913-16.92H63.086zM84 182c-7.576 0-14.83-2.82-20.423-7.942-5.154-4.719-8.49-11.002-9.5-17.834h-9.316c-2.445 0-4.435-1.987-4.435-4.429 0-2.441 1.99-4.427 4.435-4.427h105.893c4.672 0 8.473-3.795 8.473-8.46 0-4.664-3.8-8.458-8.47-8.46H17.353c-4.682.002-8.482 3.796-8.482 8.46 0 4.665 3.8 8.46 8.473 8.46h10.913c2.446 0 4.436 1.986 4.436 4.427 0 2.442-1.99 4.43-4.436 4.43H17.344C7.78 156.224 0 148.455 0 138.907c0-9.549 7.78-17.317 17.344-17.317 3.589-.002 6.316-1.291 7.991-7.578 1.64-6.151 1.696-15.28 1.755-24.945.098-16.216.209-34.581 7.218-49.42 3.938-8.333 9.773-14.78 17.342-19.16 4.326-2.503 9.357-4.39 14.97-5.616C67.932 6.43 75.32 0 84 0c8.68 0 16.068 6.43 17.383 14.869 5.901 1.292 11.16 3.315 15.649 6.022 7.612 4.59 13.416 11.335 17.25 20.048.982 2.237-.04 4.854-2.279 5.835-.565.249-1.166.375-1.782.375-1.76 0-3.355-1.04-4.062-2.648-3.127-7.107-7.612-12.35-13.714-16.028-7.128-4.3-16.698-6.479-28.444-6.479-21.226 0-34.856 7.01-41.669 21.433-6.173 13.068-6.279 30.395-6.372 45.682-.062 10.25-.12 19.93-2.052 27.18-.521 1.959-1.19 3.731-2 5.302h104.183c-.809-1.57-1.478-3.343-2-5.302-1.928-7.24-1.988-16.91-2.051-27.147v-.05c-.07-11.462.529-21.396-2.225-32.601-.58-2.372.879-4.774 3.251-5.355.348-.086.704-.129 1.059-.129 2.048 0 3.819 1.388 4.307 3.375 3.002 12.222 2.405 22.716 2.478 34.671.06 9.67.115 18.803 1.755 24.96 1.675 6.287 4.402 7.576 7.982 7.578 9.573 0 17.353 7.768 17.353 17.317 0 9.548-7.78 17.316-17.344 17.316h-36.735c-1.01 6.832-4.344 13.115-9.498 17.834C98.829 179.18 91.577 182 84 182z" transform="translate(-636 -222) translate(636 222)"/>
            </g>
        </g>
    </g>
</svg>
