<svg xmlns="http://www.w3.org/2000/svg" xmlns:xlink="http://www.w3.org/1999/xlink" width="58" height="59" viewBox="0 0 58 59">
    <defs>
        <path id="3s73wyw23a" d="M0 0.112L58 0.112 58 35 0 35z"/>
    </defs>
    <g fill="none" fill-rule="evenodd" opacity=".96">
        <g>
            <g>
                <g>
                    <g transform="translate(-467 -125) translate(404 79) translate(63 46) translate(0 23.5)">
                        <mask id="hl0nrqiitb" fill="#fff">
                            <use xlink:href="#3s73wyw23a"/>
                        </mask>
                        <path fill="#990564" d="M45.992 14.743c0 3.729-3.043 6.752-6.797 6.752h-5.664V20.37c0-3.73 3.043-6.753 6.797-6.753h5.664v1.126zM24.47 21.495h-5.664c-3.754 0-6.797-3.023-6.797-6.752v-1.126h5.664c3.754 0 6.797 3.024 6.797 6.753v1.125zM58 1.801c0-.646-.371-1.236-.956-1.518-.584-.283-1.28-.21-1.792.19-3.428 2.67-7.714 4.141-12.07 4.141h-5.12c-3.389 0-6.652 1.336-9.062 3.648-2.41-2.312-5.673-3.648-9.063-3.648H14.82c-4.357 0-8.643-1.47-12.071-4.142C2.236.074 1.54 0 .956.282.37.566 0 1.156 0 1.802v5.467c0 4.687 1.629 9.274 4.535 12.93l-1.08.391C1.69 21.227.652 22.9.871 24.751c.219 1.851 1.618 3.24 3.483 3.453l13.553 1.554c3.726.427 7.238 2.113 9.89 4.748.332.33.767.494 1.202.494.435 0 .87-.165 1.201-.495 2.652-2.634 6.165-4.32 9.89-4.747l13.554-1.554c1.865-.214 3.264-1.602 3.483-3.453.22-1.852-.818-3.524-2.582-4.162l-1.08-.39C56.37 16.542 58 11.955 58 7.268V1.8z" mask="url(#hl0nrqiitb)"/>
                    </g>
                    <path fill="#990564" d="M26.8 16.844v-1.898c0-.958.761-1.734 1.7-1.734s1.7.776 1.7 1.734v1.898c2.306.448 4.304 1.789 5.636 3.656C36.61 18.632 37 16.774 37 14.946 37 7.194 29.882 1.147 29.579.894c-.627-.525-1.53-.525-2.157 0-.304.253-7.422 6.3-7.422 14.052 0 1.828.39 3.686 1.164 5.554 1.332-1.867 3.33-3.208 5.636-3.656M43.268 24.499c1.566 0 3.12-.227 4.613-.662 2.619-6.376-.162-13.885-.292-14.226-.29-.766-1.083-1.222-1.896-1.088-.164.027-2.565.436-5.41 1.662.414 1.445.663 2.984.663 4.6 0 3.243-.99 6.503-2.946 9.715l.07-.001h5.198zM19.93 24.499l.07.001c-1.956-3.212-2.946-6.472-2.946-9.715 0-1.615.249-3.155.663-4.6-2.845-1.226-5.246-1.635-5.41-1.662-.81-.134-1.606.322-1.896 1.088-.13.342-2.91 7.85-.292 14.226 1.492.435 3.047.662 4.613.662h5.198zM34 25.226c-.362-2.668-2.686-4.726-5.5-4.726s-5.138 2.058-5.5 4.726c1.953.419 3.826 1.192 5.5 2.274 1.674-1.082 3.547-1.855 5.5-2.274" transform="translate(-467 -125) translate(404 79) translate(63 46)"/>
                </g>
            </g>
        </g>
    </g>
</svg>
