<svg xmlns="http://www.w3.org/2000/svg" width="45" height="60" viewBox="0 0 45 60">
    <g fill="none" fill-rule="evenodd" opacity=".96">
        <g fill="#39AA9D">
            <g>
                <g>
                    <path d="M40.524 19H6.211c-.458 0-.882.215-1.095.563-.393.645-.74 1.313-1.037 2.003-.3.695.293 1.434 1.159 1.434h35.524c.866 0 1.459-.74 1.16-1.434-.385-.893-.854-1.75-1.398-2.566" transform="translate(-647 -122) translate(404 79) translate(243 43)"/>
                    <g>
                        <path d="M27.945 13.879c-3.517-3.267-8.31-5.307-13.606-5.391 2.449-.174 4.35-2.202 4.137-4.605C18.292 1.814 16.508.153 14.32.01 11.693-.16 9.507 1.803 9.507 4.25c0 2.24 1.83 4.073 4.153 4.238-5.297.084-10.09 2.124-13.606 5.39h27.891z" transform="translate(-647 -122) translate(404 79) translate(243 43) translate(9)"/>
                    </g>
                    <g>
                        <path d="M40.169 24.618v-7.616c0-.204.106-.392.279-.503 1.226-.792 2.037-2.158 2.037-3.71V1.01c0-.095 0-.19-.002-.284-.006-.329-.275-.594-.609-.594H3.125c-.334 0-.603.265-.608.594-.002.094-.003.189-.003.284v11.777c0 1.553.811 2.919 2.038 3.71.172.112.279.3.279.504v7.616c0 .159-.064.311-.179.423L.178 29.45c-.237.234-.237.613 0 .847l2.23 2.196c.237.234.622.234.86 0l.524-.516c.383-.378 1.039-.11 1.039.424 0 .33.272.599.608.599h3.152c.336 0 .609-.268.609-.6 0-.534.655-.801 1.038-.424l.525.517c.237.234.623.234.86 0l2.23-2.196c.237-.234.237-.613 0-.847L9.377 25.04c-.114-.112-.178-.265-.178-.424v-7.616c0-.203.106-.39.278-.502 1.227-.792 2.038-2.158 2.038-3.711v-5.34c0-.33.272-.599.608-.599h20.751c.336 0 .609.268.609.6v5.339c0 1.553.81 2.919 2.037 3.71.173.112.279.3.279.503v7.616c0 .16-.064.312-.178.424l-4.475 4.409c-.237.234-.237.613 0 .847l2.23 2.196c.237.234.622.234.86 0l.524-.517c.383-.377 1.039-.11 1.039.424 0 .332.272.6.608.6h3.152c.336 0 .609-.268.609-.6 0-.534.655-.801 1.039-.424l.524.517c.237.234.623.234.86 0l2.23-2.196c.237-.234.237-.613 0-.847l-4.475-4.409c-.114-.112-.178-.264-.178-.423" transform="translate(-647 -122) translate(404 79) translate(243 43) translate(0 27)"/>
                    </g>
                </g>
            </g>
        </g>
    </g>
</svg>
