<?xml version="1.0" encoding="UTF-8"?>
<svg width="111px" height="107px" viewBox="0 0 111 107" version="1.1" xmlns="http://www.w3.org/2000/svg" xmlns:xlink="http://www.w3.org/1999/xlink">
    <!-- Generator: Sketch 54.1 (76490) - https://sketchapp.com -->
    <title>Group 11 Copy</title>
    <desc>Created with Sketch.</desc>
    <defs>
        <polygon id="path-1" points="0 0 106 0 106 116 0 116"></polygon>
    </defs>
    <g id="DISEÑO" stroke="none" stroke-width="1" fill="none" fill-rule="evenodd">
        <g id="YTQP_Web_home_1" transform="translate(-1313.000000, -455.000000)">
            <g id="Group-11-Copy" transform="translate(1296.500000, 438.500000)">
                <g id="Group-3" opacity="0.828683036" transform="translate(71.949163, 74.598031) scale(-1, 1) rotate(23.000000) translate(-71.949163, -74.598031) translate(18.949163, 16.598031)">
                    <mask id="mask-2" fill="white">
                        <use xlink:href="#path-1"></use>
                    </mask>
                    <g id="Clip-2"></g>
                    <path d="M53,0 C23.7362761,0 0,23.808446 0,53.161146 C0,66.8246308 5.16401918,79.2591401 13.6171889,88.6823737 C14.6891812,89.8779134 15.3005868,91.4175988 15.2924564,93.0257872 L15.2054612,109.586376 C15.1786309,114.678021 20.8247824,117.74149 25.0586846,114.932053 L38.2595973,106.173053 C39.6511141,105.249895 41.3519923,104.897594 42.9857948,105.235623 C46.2314477,105.907604 49.5579981,106.322292 53,106.322292 C82.2637239,106.322292 106,82.5134381 106,53.161146 C106,23.808446 82.2637239,0 53,0" id="Fill-1" fill="#FFFFFF" mask="url(#mask-2)"></path>
                </g>
                <circle id="Oval" fill="#990664" cx="69" cy="70" r="38.5"></circle>
                <g id="Group-16" transform="translate(44.500000, 42.500000)" fill="#FFFFFF">
                    <path d="M18.4991334,20.9845033 C20.3336222,19.1670004 20.3336222,16.2098549 18.4991334,14.392352 L12.047475,8.0004305 C11.0605982,7.02258781 9.69252087,6.52714061 8.29537774,6.64108414 C6.92489564,6.75285239 5.68531404,7.44500756 4.89457891,8.53990134 C4.73043053,8.76716689 4.57192803,8.99774717 4.41666667,9.23019198 L17.3899295,22.0833333 L18.4991334,20.9845033 Z" id="Fill-1"></path>
                    <path d="M44.9995349,40.9522216 L38.6076761,34.5007486 C36.7903982,32.6665217 33.8330746,32.6663126 32.0155895,34.5007486 L30.9166667,35.6098161 L43.7701998,48.5833333 C44.0026423,48.4280764 44.2329096,48.2688466 44.4599657,48.1049121 C45.5548488,47.3141997 46.2469971,46.0746537 46.3588679,44.704211 C46.4730175,43.3067944 45.9773679,41.9391745 44.9995349,40.9522216" id="Fill-3"></path>
                    <path d="M24.0398487,39.6758173 C22.8755933,39.6758173 21.7812649,39.2224543 20.9580246,38.3993115 L14.6006729,32.042061 C13.7775295,31.2189181 13.3240694,30.1242999 13.3240694,28.9601421 C13.3240694,28.2988385 13.4707999,27.6601982 13.7479897,27.0808312 L2.12558079,15.4583333 C0.490722515,18.8910491 -0.232760382,22.7369344 0.0657368451,26.5972505 C0.467962343,31.7991568 2.71124358,36.6857139 6.38250767,40.3568786 L12.6432013,46.6174711 C16.3142717,50.2886359 21.2009289,52.5319156 26.4028388,52.9343345 C26.9713588,52.9783052 27.5392008,53 28.1057838,53 C31.3866383,53 34.6145149,52.2685758 37.5416667,50.874492 L25.919064,39.2518973 C25.3397935,39.5291838 24.7011527,39.6758173 24.0398487,39.6758173" id="Fill-5"></path>
                    <path d="M30.3277778,0 C29.4334126,0 28.7083333,0.725079259 28.7083333,1.61944444 C28.7083333,2.51380963 29.4334126,3.23888889 30.3277778,3.23888889 C41.0433178,3.23888889 49.7611111,11.9566822 49.7611111,22.6722222 C49.7611111,23.5665874 50.4861904,24.2916667 51.3805556,24.2916667 C52.2749207,24.2916667 53,23.5665874 53,22.6722222 C53,10.1707589 42.8292411,0 30.3277778,0" id="Fill-8"></path>
                    <path d="M30.1804574,22.8180704 C30.1804574,22.8180704 30.1805556,22.8185611 30.1805556,22.8194444 C30.1805556,23.6325037 30.8397185,24.2916667 31.6527778,24.2916667 C32.465837,24.2916667 33.125,23.6325037 33.125,22.8194444 C33.125,21.1958778 31.8041222,19.875 30.1805556,19.875 C29.3674963,19.875 28.7083333,20.5334759 28.7083333,21.3465352 C28.7083333,22.1595944 29.3673981,22.8180704 30.1804574,22.8180704" id="Fill-10"></path>
                    <path d="M30.2857143,16.4047619 C33.7647857,16.4047619 36.5952381,19.2352143 36.5952381,22.7142857 C36.5952381,23.5854206 37.3014841,24.2916667 38.172619,24.2916667 C39.043754,24.2916667 39.75,23.5854206 39.75,22.7142857 C39.75,17.4956786 35.5043214,13.25 30.2857143,13.25 C29.4145794,13.25 28.7083333,13.956246 28.7083333,14.827381 C28.7083333,15.6985159 29.4145794,16.4047619 30.2857143,16.4047619" id="Fill-12"></path>
                    <path d="M30.3143939,6.625 C29.4274202,6.625 28.7083333,7.34408687 28.7083333,8.23106061 C28.7083333,9.11803434 29.4274202,9.83712121 30.3143939,9.83712121 C37.3990485,9.83712121 43.1628788,15.6009515 43.1628788,22.6856061 C43.1628788,23.5725798 43.8819657,24.2916667 44.7689394,24.2916667 C45.6559131,24.2916667 46.375,23.5725798 46.375,22.6856061 C46.375,13.8297879 39.1702121,6.625 30.3143939,6.625" id="Fill-14"></path>
                </g>
            </g>
        </g>
    </g>
</svg>