<svg xmlns="http://www.w3.org/2000/svg" width="35" height="35" viewBox="0 0 35 35">
    <g fill="none" fill-rule="evenodd">
        <g>
            <g>
                <g transform="translate(-1170 -268) translate(1083 169) translate(87 99)">
                    <circle cx="17.5" cy="17.5" r="17.5" fill="#990664"/>
                    <g fill="#FFF">
                        <path d="M8.377 9.502c.83-.823.83-2.162 0-2.985L5.455 3.623c-.446-.443-1.066-.667-1.699-.616-.62.05-1.182.364-1.54.86-.074.103-.146.207-.216.313L7.875 10l.502-.498zM20.377 18.544l-2.894-2.921c-.823-.83-2.162-.83-2.985 0l-.498.502L19.82 22c.106-.07.21-.142.313-.217.496-.358.809-.919.86-1.54.051-.632-.173-1.252-.616-1.699M10.886 17.966c-.527 0-1.023-.205-1.396-.578L6.612 14.51c-.373-.373-.578-.869-.578-1.396 0-.3.066-.589.192-.851L.963 7C.223 8.554-.105 10.296.03 12.044c.182 2.356 1.198 4.568 2.86 6.23l2.835 2.836c1.663 1.662 3.875 2.678 6.231 2.86.257.02.515.03.771.03 1.486 0 2.947-.331 4.273-.962l-5.263-5.264c-.262.126-.552.192-.851.192M13.733 0C13.328 0 13 .328 13 .733c0 .405.328.734.733.734 4.853 0 8.8 3.947 8.8 8.8 0 .405.329.733.734.733.405 0 .733-.328.733-.733C24 4.606 19.394 0 13.733 0M13.667 10.333c0 .369.298.667.666.667.369 0 .667-.298.667-.667C15 9.598 14.402 9 13.667 9c-.369 0-.667.298-.667.666 0 .369.298.667.667.667M13.714 7.429c1.576 0 2.857 1.281 2.857 2.857 0 .394.32.714.715.714.394 0 .714-.32.714-.714C18 7.923 16.077 6 13.714 6c-.394 0-.714.32-.714.714 0 .395.32.715.714.715" transform="translate(6 5)"/>
                        <path d="M13.727 3c-.401 0-.727.326-.727.727 0 .402.326.728.727.728 3.208 0 5.818 2.61 5.818 5.818 0 .401.326.727.728.727.401 0 .727-.326.727-.727C21 6.263 17.737 3 13.727 3" transform="translate(6 5)"/>
                    </g>
                </g>
            </g>
        </g>
    </g>
</svg>
