<svg xmlns="http://www.w3.org/2000/svg" xmlns:xlink="http://www.w3.org/1999/xlink" width="35" height="35" viewBox="0 0 35 35">
    <defs>
        <path id="npjgqa63ma" d="M0 0L14 0 14 11 0 11z"/>
    </defs>
    <g fill="none" fill-rule="evenodd">
        <g>
            <g>
                <g transform="translate(-1170 -325) translate(1083 169) translate(87 156)">
                    <circle cx="17.5" cy="17.5" r="17.5" fill="#990664"/>
                    <g>
                        <g transform="translate(9 8) translate(2 7)">
                            <mask id="vu3vo9vkcb" fill="#fff">
                                <use xlink:href="#npjgqa63ma"/>
                            </mask>
                            <path fill="#FFF" d="M7 8.442c-1.654 0-3-1.122-3-2.5 0-1.379 1.346-2.5 3-2.5s3 1.121 3 2.5c0 1.378-1.346 2.5-3 2.5m3.348-7.011c-.1-.106-.237-.166-.382-.166H8.901v-.73C8.901.24 8.665 0 8.373 0c-.291 0-.528.24-.528.535v.73h-1.69v-.73C6.155.24 5.918 0 5.627 0c-.292 0-.528.24-.528.535v.73H4.034c-.145 0-.283.06-.382.166L2.004 3.185C.712 4.56 0 6.364 0 8.263v2.202c0 .295.236.535.528.535h12.944c.292 0 .528-.24.528-.535V8.263c0-1.9-.712-3.703-2.004-5.078L10.348 1.43z" mask="url(#vu3vo9vkcb)"/>
                        </g>
                        <path fill="#FFF" d="M9 11c-1.103 0-2 .897-2 2s.897 2 2 2 2-.897 2-2-.897-2-2-2M17.31 3.717c-.69-1.053-1.9-2.003-3.406-2.676C12.407.373 10.668.003 9.01 0c-1.66-.005-3.401.362-4.9 1.025C2.6 1.693 1.387 2.64.693 3.69.03 4.698-.163 5.785.14 6.834c.196.68.769 1.137 1.425 1.138l2.249.002h.002c.448 0 .87-.217 1.156-.596.283-.375.4-.866.322-1.346l-.009-.042-.118-.51c.655-.345 2.14-1.014 3.835-1.004 1.694.01 3.177.678 3.833 1.025l-.12.506-.01.044c-.079.48.037.97.32 1.346.285.381.707.6 1.156.6L16.43 8h.003c.655 0 1.228-.456 1.426-1.134.306-1.048.116-2.137-.548-3.149" transform="translate(9 8)"/>
                    </g>
                </g>
            </g>
        </g>
    </g>
</svg>
