<?xml version="1.0" encoding="UTF-8"?>
<svg width="15px" height="17px" viewBox="0 0 15 17" version="1.1" xmlns="http://www.w3.org/2000/svg" xmlns:xlink="http://www.w3.org/1999/xlink">
    <g id="DISEÑO" stroke="none" stroke-width="1" fill="none" fill-rule="evenodd">
        <g id="header" transform="translate(-983.000000, -93.000000)" fill="#636363">
            <g id="HEADER_desk_2-Copy-3" transform="translate(30.000000, 65.000000)">
                <g id="Group-19" transform="translate(945.000000, 21.000000)">
                    <g id="Group-4" transform="translate(7.750000, 7.000000)">
                        <path d="M6.25258098,11.3235065 C5.09365195,11.2483974 4.03060004,10.6822035 3.25959955,9.72974235 C2.48843536,8.77698173 2.10154361,7.55175567 2.1699727,6.27969118 C2.23834722,5.00756679 2.75402099,3.84079891 3.62198997,2.99453282 C4.44837764,2.18851663 5.47923404,1.79242648 6.50643435,1.79242648 C7.7059079,1.79242648 8.90063397,2.33286522 9.75796206,3.39230004 C11.3498388,5.35897475 11.1872242,8.38023274 9.39562621,10.1274497 C8.52782093,10.9737158 7.41260139,11.3993345 6.25258098,11.3235065 M2.53678318,1.65388777 C1.34265737,2.81837962 0.633264889,4.42358389 0.539079395,6.1739154 C0.444839333,7.92424691 0.977320241,9.6097114 2.03824398,10.9205883 C3.09911314,12.2312855 4.56160759,13.0099294 6.15621274,13.1133692 C6.27664576,13.1213353 6.39691507,13.1250489 6.51669326,13.1250489 C7.71016425,13.1250489 8.85823412,12.7390212 9.83981504,12.0135048 L13.9568016,17 L15.167298,15.7960369 L11.059097,10.8200234 C12.9659986,8.36897235 12.9837334,4.67748169 10.9793722,2.2013942 C8.78915021,-0.504453125 5.00197661,-0.749905629 2.53678318,1.65388777 Z" id="Fill-1"></path>
                    </g>
                </g>
            </g>
        </g>
    </g>
</svg>