<?xml version="1.0" encoding="UTF-8"?>
<svg width="188px" height="188px" viewBox="0 0 188 188" version="1.1" xmlns="http://www.w3.org/2000/svg" xmlns:xlink="http://www.w3.org/1999/xlink">
    <!-- Generator: Sketch 54.1 (76490) - https://sketchapp.com -->
    <title>Group 7</title>
    <desc>Created with Sketch.</desc>
    <g id="DISEÑO" stroke="none" stroke-width="1" fill="none" fill-rule="evenodd">
        <g id="YTQP_Web_Buscador_losentimos_2" transform="translate(-626.000000, -205.000000)" fill="#830D63">
            <g id="Group-7" transform="translate(626.000000, 205.000000)">
                <path d="M113.499261,138.613468 C99.6524694,138.613468 88.3865315,127.347531 88.3865315,113.499261 C88.3865315,99.6524694 99.6524694,88.3850542 113.499261,88.3850542 C127.347531,88.3850542 138.613468,99.6524694 138.613468,113.499261 C138.613468,127.347531 127.347531,138.613468 113.499261,138.613468 M113.499261,81 C95.5795359,81 81,95.5784279 81,113.499261 C81,131.420095 95.5795359,146 113.499261,146 C131.420095,146 146,131.420095 146,113.499261 C146,95.5784279 131.420095,81 113.499261,81" id="Fill-1"></path>
                <path d="M73.4414446,113.829558 C73.4414446,91.5588904 91.5609178,73.4403816 113.83277,73.4403816 C136.104623,73.4403816 154.225565,91.5588904 154.225565,113.829558 C154.225565,136.100225 136.104623,154.220202 113.83277,154.220202 C91.5609178,154.220202 73.4414446,136.100225 73.4414446,113.829558 L73.4414446,113.829558 Z M51.2496433,91.2258512 C49.0493376,90.0269834 46.4230716,90.0255147 44.221297,91.2258512 L7.34414446,111.3224 L7.34414446,29.3591335 L44.0633979,9.34887371 L44.0633979,78.6639935 C44.0633979,80.691971 45.7088535,82.3358703 47.7354702,82.3358703 C49.7639229,82.3358703 51.4075424,80.691971 51.4075424,78.6639935 L51.4075424,9.34887371 L88.1987685,29.3980554 C88.1528676,29.630118 88.1282647,29.8698915 88.1282647,30.1166417 L88.1282647,73.6239754 C78.5566412,79.764455 71.3127443,89.227983 68.0324822,100.371395 L51.2496433,91.2258512 Z M132.191663,9.34887371 L132.191663,69.7699735 C126.537406,67.4045505 120.334909,66.096628 113.83277,66.096628 C107.329163,66.096628 101.127033,67.4045505 95.4724092,69.7714423 L95.4724092,30.1166417 C95.4724092,29.8698915 95.4467047,29.630118 95.4008038,29.3980554 L132.191663,9.34887371 Z M184.359691,166.746076 L161.058557,143.31583 C159.625347,141.882696 157.300191,141.882696 155.86588,143.31583 C154.431568,144.750065 154.431568,147.075097 155.86588,148.509332 L179.165545,171.938477 C180.130933,172.903813 180.661547,174.186032 180.661547,175.550135 C180.661547,176.914237 180.130933,178.196456 179.165545,179.160324 C177.174547,181.152684 173.934311,181.152684 171.943313,179.160324 L143.764565,150.984544 C154.614437,142.226384 161.56824,128.826971 161.56824,113.829558 C161.56824,96.9646274 152.776932,82.1151905 139.535807,73.6225067 L139.535807,9.34887371 C139.535807,6.73119274 138.191829,4.37017596 135.941216,3.03508156 C133.690603,1.69815122 130.975472,1.64784651 128.67749,2.90032368 L91.7988681,22.9965054 L51.2496433,0.89915083 C49.0493376,-0.299716943 46.4230716,-0.299716943 44.221297,0.89915083 L3.82850251,22.9120522 C1.46736006,24.1983106 0,26.6698509 0,29.3591335 L0,111.3224 C0,113.940081 1.34397844,116.299629 3.59459151,117.636192 C4.75937282,118.329075 6.04900459,118.674599 7.3412068,118.674599 C8.54491208,118.674599 9.74971898,118.374974 10.8583176,117.769481 L47.7354702,97.6732996 L66.467445,107.881484 C66.2236194,109.830517 66.0973001,111.8159 66.0973001,113.829558 C66.0973001,140.151039 87.5113566,161.562487 113.83277,161.562487 C122.483805,161.562487 130.60239,159.250306 137.6065,155.211242 L166.749534,184.352358 C169.101864,186.704929 172.228633,188 175.555164,188 C178.880225,188 182.006995,186.704929 184.359691,184.352358 C189.213436,179.498871 189.213436,171.599929 184.359691,166.746076 L184.359691,166.746076 Z" id="Fill-3"></path>
                <path d="M113.636628,98 C111.629209,98 110,99.6292094 110,101.636628 C110,103.645138 111.629209,105.273256 113.636628,105.273256 C118.64972,105.273256 122.726744,109.351735 122.726744,114.363372 C122.726744,116.372245 124.356317,118 126.363372,118 C128.372245,118 130,116.372245 130,114.363372 C130,105.341261 122.65983,98 113.636628,98" id="Fill-5"></path>
            </g>
        </g>
    </g>
</svg>