<?xml version="1.0" encoding="UTF-8"?>
<svg width="20px" height="21px" viewBox="0 0 20 21" version="1.1" xmlns="http://www.w3.org/2000/svg" xmlns:xlink="http://www.w3.org/1999/xlink">
    <!-- Generator: Sketch 54.1 (76490) - https://sketchapp.com -->
    <title>Group 3</title>
    <desc>Created with Sketch.</desc>
    <defs>
        <polygon id="path-1" points="0 0 20 0 20 20 0 20"></polygon>
    </defs>
    <g id="DISEÑO" stroke="none" stroke-width="1" fill="none" fill-rule="evenodd">
        <g id="YTQP_Mobile_Home" transform="translate(-293.000000, -113.000000)">
            <g id="Group-3" transform="translate(293.000000, 113.500000)">
                <mask id="mask-2" fill="white">
                    <use xlink:href="#path-1"></use>
                </mask>
                <g id="Clip-2"></g>
                <path d="M8.88759258,9.9998 C8.88759258,10.2086667 8.84952566,10.4072 8.78299189,10.5932 L11.5742105,11.936 C11.8954793,11.5843333 12.3562824,11.363 12.8699525,11.363 C13.8401589,11.363 14.6268308,12.1494 14.6268308,13.1195333 C14.6268308,14.0898667 13.8399589,14.8766 12.8695525,14.8766 C11.899346,14.8766 11.1122741,14.0898667 11.1122741,13.1195333 C11.1122741,13.0265333 11.1219408,12.9357333 11.1358076,12.8468667 L8.16458776,11.4178667 C7.87411916,11.6303333 7.51725012,11.7570667 7.1299142,11.7570667 C6.1595744,11.7570667 5.37283582,10.9706667 5.37283582,9.99966667 C5.37283582,9.02966667 6.1595744,8.24313333 7.1299142,8.24313333 C7.51725012,8.24313333 7.8742525,8.36986667 8.16478777,8.5822 L11.1362076,7.15346667 C11.1222075,7.0644 11.1126741,6.974 11.1126741,6.8808 C11.1126741,5.91026667 11.899546,5.12373333 12.8699525,5.12373333 C13.8401589,5.12373333 14.6270308,5.91026667 14.6270308,6.8808 C14.6270308,7.85113333 13.8401589,8.63786667 12.8699525,8.63786667 C12.3566157,8.63786667 11.8954793,8.416 11.5742105,8.06466667 L8.78299189,9.40693333 C8.84959233,9.59266667 8.88759258,9.79166667 8.88759258,9.9998 M9.99973333,0 C4.47709651,0 0,4.4774 0,9.9998 C0,15.5222 4.47709651,20 9.99973333,20 C15.5223701,20 20,15.5224667 20,9.9998 C20,4.47713333 15.5223701,0 9.99973333,0" id="Fill-1" fill="#A4A3A3" mask="url(#mask-2)"></path>
            </g>
        </g>
    </g>
</svg>