<?xml version="1.0" encoding="UTF-8"?>
<svg width="21px" height="23px" viewBox="0 0 21 23" version="1.1" xmlns="http://www.w3.org/2000/svg" xmlns:xlink="http://www.w3.org/1999/xlink">
    <!-- Generator: Sketch 54.1 (76490) - https://sketchapp.com -->
    <title>Group 3</title>
    <desc>Created with Sketch.</desc>
    <g id="DISEÑO" stroke="none" stroke-width="1" fill="none" fill-rule="evenodd">
        <g id="header" transform="translate(-1071.000000, -91.000000)" fill="#FFFFFF">
            <g id="HEADER_desk_2-Copy-3" transform="translate(30.000000, 65.000000)">
                <g id="user" transform="translate(1036.000000, 21.000000)">
                    <g id="Group-3" transform="translate(5.000000, 5.000000)">
                        <path d="M20.5104846,17.179763 C18.4784539,20.7698782 14.666631,23 10.5625337,23 C6.45843639,23 2.64661347,20.7698782 0.614582819,17.179763 C0.429343423,16.8525407 0.471713871,16.4431169 0.719866962,16.1611907 L0.719866962,16.1611907 C1.88324507,14.8395697 3.55629415,14.0816252 5.30999882,14.0816252 L15.8150686,14.0816252 C17.5687732,14.0816252 19.2418223,14.8395697 20.405142,16.1612494 L20.4052004,16.161308 C20.6532951,16.4431756 20.6956072,16.8525407 20.5104846,17.179763 M10.3592606,0.00332504814 C13.8985353,-0.112379131 16.8022533,2.80692179 16.6871644,6.36505999 C16.5827557,9.59321832 13.9767981,12.2131669 10.7657484,12.3181339 C7.22653207,12.4338381 4.32275571,9.5145958 4.43790295,5.95639893 C4.54231167,2.72824061 7.1482693,0.108291973 10.3592606,0.00332504814" id="Fill-1"></path>
                    </g>
                </g>
            </g>
        </g>
    </g>
</svg>