<svg xmlns="http://www.w3.org/2000/svg" width="16" height="19" viewBox="0 0 16 19">
    <g fill="none" fill-rule="evenodd">
        <g fill="#FFF" fill-rule="nonzero">
            <g>
                <g>
                    <path d="M8 10c2.759 0 5-2.244 5-4.999C13 2.247 10.759 0 8 0S3 2.244 3 4.998C3 7.753 5.241 10 8 10zm0-8.805c2.098 0 3.804 1.706 3.804 3.803 0 2.098-1.706 3.804-3.804 3.804S4.195 7.096 4.195 4.998c0-2.097 1.707-3.803 3.805-3.803zM9.407 12H6.593C2.957 12 0 14.882 0 18.422V19h16v-.578C16 14.882 13.043 12 9.407 12zM1.22 17.844c.297-2.63 2.594-4.685 5.373-4.685h2.814c2.781 0 5.076 2.055 5.373 4.685H1.22z" transform="translate(-1213 -49) translate(178 22) translate(1035 27)"/>
                </g>
            </g>
        </g>
    </g>
</svg>
